<svg width="180" height="30" fill="none" xmlns="http://www.w3.org/2000/svg"><g clip-path="url(#clip0_0_954)"><path d="M14.757 4.959L29.19.78 24.979 15l4.21 14.178-14.43-4.137L.284 29.179 4.537 15 .285.781 14.757 4.96z" fill="#fff"/></g><path d="M40.11 25.472V2.917h9.117c1.4 0 2.646.279 3.739.838 1.115.537 1.979 1.31 2.59 2.32.635.988.952 2.18.952 3.576v.42c0 1.395-.328 2.598-.984 3.608a6.247 6.247 0 01-2.59 2.32c-1.094.537-2.33.806-3.707.806h-5.575v8.667H40.11zm3.542-11.825h5.215c1.246 0 2.24-.322 2.984-.967.743-.644 1.115-1.525 1.115-2.642v-.322c0-1.139-.372-2.03-1.115-2.675-.743-.644-1.738-.966-2.984-.966h-5.215v7.572zm23.445 12.276c-1.618 0-3.061-.322-4.33-.966a7.432 7.432 0 01-2.95-2.836c-.722-1.224-1.083-2.674-1.083-4.35v-.483c0-1.676.36-3.115 1.082-4.318a7.43 7.43 0 012.952-2.836c1.268-.665 2.71-.998 4.329-.998 1.618 0 3.06.333 4.329.998a7.377 7.377 0 012.984 2.836c.722 1.203 1.083 2.642 1.083 4.318v.483c0 1.676-.361 3.126-1.082 4.35a7.378 7.378 0 01-2.985 2.836c-1.268.644-2.711.966-4.33.966zm0-2.964c1.487 0 2.69-.462 3.608-1.386.94-.945 1.41-2.244 1.41-3.899v-.29c0-1.654-.46-2.942-1.378-3.866-.918-.945-2.131-1.418-3.64-1.418-1.465 0-2.668.473-3.608 1.418-.918.924-1.377 2.212-1.377 3.866v.29c0 1.655.459 2.954 1.377 3.9.94.923 2.143 1.385 3.608 1.385zm19.226 2.964c-2.055 0-3.76-.45-5.116-1.353-1.356-.902-2.186-2.266-2.492-4.092l3.148-.741c.175.88.47 1.579.885 2.094.416.516.93.88 1.542 1.096a6.296 6.296 0 002.033.322c1.072 0 1.892-.204 2.46-.612.59-.408.885-.935.885-1.58 0-.644-.273-1.116-.82-1.417-.546-.3-1.355-.548-2.426-.741l-1.115-.193a14.675 14.675 0 01-2.985-.838c-.896-.365-1.607-.87-2.132-1.515-.524-.644-.787-1.471-.787-2.48 0-1.504.569-2.664 1.706-3.48 1.137-.838 2.645-1.257 4.526-1.257 1.814 0 3.301.408 4.46 1.224 1.18.795 1.946 1.88 2.296 3.255l-3.149.87c-.197-.967-.612-1.644-1.246-2.03-.634-.409-1.421-.613-2.361-.613-.919 0-1.64.172-2.165.516-.525.322-.787.784-.787 1.385 0 .645.251 1.117.754 1.418.525.3 1.225.527 2.1.677l1.147.193c1.159.194 2.22.462 3.181.806.962.343 1.717.837 2.263 1.482.569.644.853 1.504.853 2.578 0 1.59-.601 2.825-1.804 3.705-1.203.881-2.82 1.321-4.854 1.321zm10.607-.451V9.587h3.377v15.885h-3.378zm1.705-18.044c-.656 0-1.214-.204-1.673-.612-.437-.43-.656-.978-.656-1.644 0-.666.219-1.203.656-1.61.46-.43 1.017-.645 1.673-.645.677 0 1.235.215 1.672.644.438.408.656.945.656 1.611s-.218 1.214-.656 1.644c-.437.408-.995.612-1.672.612zm12.753 18.044c-.984 0-1.771-.29-2.362-.87-.568-.58-.852-1.353-.852-2.32V12.39h-4.461V9.587h4.461V4.335h3.378v5.252h4.821v2.803h-4.821v9.312c0 .645.306.967.918.967h3.378v2.803h-4.46zm8.953 0V9.587h3.378v15.885h-3.378zm1.706-18.044c-.656 0-1.214-.204-1.673-.612-.437-.43-.656-.978-.656-1.644 0-.666.219-1.203.656-1.61.459-.43 1.017-.645 1.673-.645.678 0 1.235.215 1.672.644.438.408.656.945.656 1.611s-.218 1.214-.656 1.644c-.437.408-.994.612-1.672.612zm10.424 18.044l-5.444-15.885h3.575l4.296 13.436h.525l4.296-13.436h3.575l-5.444 15.885h-5.379zm20.3.29c-1.225 0-2.318-.268-3.28-.805a5.753 5.753 0 01-2.263-2.288c-.547-.988-.82-2.17-.82-3.544V9.587h3.378v9.312c0 1.375.35 2.395 1.05 3.061.699.645 1.672.967 2.919.967 1.377 0 2.481-.451 3.312-1.354.853-.923 1.279-2.244 1.279-3.963V9.587h3.378v15.885h-3.312v-2.384h-.525c-.306.644-.853 1.256-1.64 1.836-.787.559-1.946.838-3.476.838zm20.571.161c-2.055 0-3.76-.45-5.116-1.353-1.355-.902-2.186-2.266-2.492-4.092l3.148-.741c.175.88.47 1.579.886 2.094.415.516.929.88 1.541 1.096a6.296 6.296 0 002.033.322c1.072 0 1.892-.204 2.46-.612.59-.408.886-.935.886-1.58 0-.644-.274-1.116-.82-1.417-.547-.3-1.356-.548-2.427-.741l-1.115-.193a14.678 14.678 0 01-2.985-.838c-.896-.365-1.607-.87-2.132-1.515-.524-.644-.787-1.471-.787-2.48 0-1.504.569-2.664 1.706-3.48 1.137-.838 2.645-1.257 4.526-1.257 1.814 0 3.301.408 4.46 1.224 1.181.795 1.946 1.88 2.296 3.255l-3.149.87c-.197-.967-.612-1.644-1.246-2.03-.634-.409-1.421-.613-2.361-.613-.919 0-1.64.172-2.165.516-.525.322-.787.784-.787 1.385 0 .645.251 1.117.754 1.418.525.3 1.225.527 2.099.677l1.148.193a18.5 18.5 0 013.181.806c.962.343 1.717.837 2.263 1.482.569.644.853 1.504.853 2.578 0 1.59-.601 2.825-1.804 3.705-1.202.881-2.82 1.321-4.854 1.321z" fill="#fff"/><defs><clipPath id="clip0_0_954"><path fill="#fff" transform="translate(0 .5)" d="M0 0h29.517v29H0z"/></clipPath></defs></svg>