<svg width="30" height="30" fill="none" xmlns="http://www.w3.org/2000/svg"><circle cx="15" cy="15" r="15" fill="#fff"/><path d="M8.222 22.059h3.084v-9.985H8.222v9.985zM7.941 8.887c0 .984.795 1.781 1.823 1.781.98 0 1.775-.797 1.775-1.781 0-.984-.794-1.828-1.775-1.828A1.828 1.828 0 007.94 8.887zM19.81 22.059h3.131v-5.485c0-2.671-.607-4.78-3.738-4.78-1.495 0-2.523.843-2.944 1.64h-.047v-1.36h-2.944v9.985h3.084v-4.922c0-1.313.234-2.578 1.87-2.578 1.588 0 1.588 1.5 1.588 2.625v4.875z" fill="#000"/></svg>