<svg width="30" height="30" fill="none" xmlns="http://www.w3.org/2000/svg"><circle cx="15" cy="15" r="15" fill="#fff"/><path d="M21.996 11.492a7.667 7.667 0 001.792-1.862 6.785 6.785 0 01-2.068.552 3.536 3.536 0 001.586-2 7.642 7.642 0 01-2.275.897 3.62 3.62 0 00-2.654-1.138 3.619 3.619 0 00-3.619 3.62c0 .275.035.55.103.827a10.5 10.5 0 01-7.479-3.792 3.52 3.52 0 00-.482 1.827c0 1.24.62 2.344 1.62 2.999-.586-.035-1.172-.173-1.655-.448v.034a3.623 3.623 0 002.895 3.55c-.275.07-.62.138-.93.138-.242 0-.448-.035-.69-.069a3.602 3.602 0 003.378 2.516 7.277 7.277 0 01-4.48 1.551c-.31 0-.586-.034-.862-.069 1.585 1.034 3.48 1.62 5.549 1.62 6.652 0 10.271-5.48 10.271-10.271v-.482z" fill="#000"/></svg>