<svg width="127" height="48" viewBox="0 0 127 48" fill="none" xmlns="http://www.w3.org/2000/svg">
<g style="mix-blend-mode:luminosity" clip-path="url(#clip0_0_659)">
<path fill-rule="evenodd" clip-rule="evenodd" d="M125.591 30.5633C120.335 38.4606 112.012 36.1691 109.512 34.3749C108.448 35.0147 106.583 36.417 104.095 36.255C98.7976 35.9104 96.9005 29.2007 96.9005 29.2007C96.9386 29.2275 95.3224 29.6949 94.449 29.6866C94.4378 31.6542 92.5187 36.3546 87.3393 36.2945C81.5274 36.2273 80.3458 28.5531 80.3458 28.5531C80.3458 28.5531 79.7675 29.2649 77.5684 29.9739C77.6791 28.4622 77.5981 36.0644 70.6323 36.1761C65.1253 36.2646 63.6388 28.4348 63.6388 28.4348C63.6388 28.4348 62.6834 29.3143 60.832 29.6194C60.9496 28.0831 60.7584 36.2019 53.7916 36.1761C49.0836 36.1588 47.4748 31.353 47.5999 30.686C47.7596 29.8359 46.0088 36.2957 41.4356 36.195C39.5485 36.1459 38.1415 34.9349 37.2587 33.3204C36.0768 34.5189 34.3609 36.195 32.436 36.195C28.9807 36.195 27.4574 33.6337 27.7154 26.3179C27.7374 25.4502 27.6667 25.109 26.6935 24.9792C26.1094 24.8928 25.5111 24.7292 24.8782 24.643C24.6753 25.243 22.9546 35.9998 17.0377 36.204C15.0527 36.2725 13.9673 34.7485 13.076 33.6174C11.7096 35.2194 9.90586 36.255 7.33633 36.255C2.98374 36.255 0.0181885 33.1365 0.0181885 29.2895C0.0181885 25.4425 2.98374 22.3242 7.33633 22.3242C8.10591 22.3242 8.32195 22.422 9.02501 22.6038C7.57914 10.9365 10.9937 9.11303 13.9807 9.11303C16.8484 9.11303 21.7475 15.012 14.854 29.9751C16.3845 34.4381 19.684 34.1857 21.2695 24.9982C21.5921 23.1307 20.7293 20.6105 22.0714 20.2588C24.5247 19.616 24.785 21.5446 25.9353 21.866C27.1516 22.2056 27.8615 22.1724 29.0292 22.3885C31.0244 22.7339 31.803 23.6838 31.5599 25.7996C31.268 28.4767 30.7573 32.3732 32.3143 32.8481C33.4371 33.1931 35.4872 31.1293 35.8469 30.0001C36.2065 28.871 36.2816 28.4845 36.3136 27.6563C36.3622 25.8861 36.4233 24.5886 36.7639 23.2499C36.9097 22.7319 37.0758 22.3888 37.7371 22.3654C38.2812 22.3531 39.2762 22.2079 39.7143 22.51C40.2981 22.8988 40.2251 23.2933 40.1581 24.3316C39.4791 39.1353 44.7051 31.7452 46.2633 25.8279C45.7084 19.1369 46.0894 9.23555 50.8202 9.06949C53.2806 8.98313 54.3684 10.7301 54.488 12.034C54.8264 15.7168 52.9308 21.8172 50.4378 25.9197C49.013 34.2907 56.6674 35.9459 57.8915 29.2642C55.8888 28.4202 53.7245 25.0044 55.4857 23.3397C56.474 22.4055 60.5877 23.7476 60.6551 26.6748C62.673 26.1965 62.9424 25.1867 62.9704 25.354C62.4157 18.663 62.9302 9.23564 67.6613 9.06957C70.1214 8.98321 71.209 10.7301 71.3286 12.0341C71.667 15.7168 69.7714 21.8173 67.2787 25.9199C65.8538 34.2907 73.5084 35.946 74.7321 29.2643C73.2494 29.0107 70.1194 25.3775 71.9254 23.3398C72.8905 22.2509 76.9892 24.5154 77.4481 26.7717C79.3865 26.2855 79.6498 25.3078 79.6776 25.4724C79.1227 18.7816 79.6372 9.35422 84.3684 9.18815C86.8285 9.10179 87.9161 10.8487 88.0357 12.1527C88.3741 15.8354 86.4785 21.936 83.9855 26.0385C82.5608 34.4095 90.2153 36.0644 91.4394 29.3827C89.4018 29.082 86.506 25.2458 88.8366 23.2833C89.7678 22.4992 93.3259 24.5346 94.1588 26.8568C95.316 26.8173 96.0364 26.4636 96.1908 26.4279C94.3433 18.573 95.7186 9.14836 100.808 9.06969C103.559 9.02721 106.248 10.3877 105.068 17.8606C103.941 24.9906 99.8908 27.9827 99.9002 28.0285C100.136 28.8827 102.214 36.0312 107.448 32.2594C107.177 31.7157 106.906 31.1603 106.754 30.4874C105.887 26.5677 107.59 22.1404 112.221 21.4249C114.875 21.0149 117.374 22.1598 117.77 24.741C118.42 28.9645 114.117 32.0233 112.48 32.6868C111.747 32.3178 119.124 36.5107 123.502 28.108C123.755 27.6282 124.061 27.6689 124.458 27.9162C124.738 28.0908 126.333 29.4299 125.591 30.5633ZM10.5024 28.2517C10.2797 27.6615 9.82259 26.361 9.66094 25.7976C8.77071 25.1114 8.13528 25 6.99259 25C4.45315 25 2.95849 27.0809 2.95849 29.3247C2.95849 31.5684 4.58682 33.6496 7.12626 33.6496C9.32698 33.6496 11.0019 32.3235 11.5129 30.4462C11.1553 29.7143 10.8004 29.0417 10.5024 28.2517ZM13.9185 12.2015C12.1341 12.2015 11.5288 15.974 11.6463 19.1924C11.7502 22.0378 12.6473 24.5428 13.1127 25.6653C13.2308 25.8059 13.2089 25.7144 13.3144 25.8636C16.4126 19.8472 15.1275 12.2015 13.9185 12.2015ZM51.0751 12.32C48.7689 12.0855 48.7838 20.6001 49.0701 22.51C50.2678 20.8118 52.3485 12.7772 51.0751 12.32ZM67.9157 12.32C65.6095 12.0855 65.6244 20.6001 65.9109 22.51C67.1085 20.8118 69.1893 12.7772 67.9157 12.32ZM84.6229 12.4384C82.3166 12.204 82.3315 20.7186 82.6179 22.6287C83.8155 20.9303 85.8963 12.8956 84.6229 12.4384ZM101.063 11.8215C97.4694 12.461 98.3061 23.0789 98.8519 24.9412C103.084 19.789 103.172 11.628 101.063 11.8215ZM114.529 25.0903C114.346 24.4133 113.433 24.0515 112.802 24.1407C110.998 24.359 109.248 26.3505 109.926 29.3824C110.076 30.0576 110.454 30.6792 110.448 30.6585C114.485 28.2577 114.828 26.3659 114.529 25.0903ZM38.4444 20.0218C37.9287 20.0219 37.4246 19.8864 36.9959 19.6326C36.5671 19.3787 36.2328 19.0179 36.0354 18.5957C35.838 18.1735 35.7864 17.7089 35.887 17.2607C35.9874 16.8124 36.2358 16.4007 36.6004 16.0775C36.9649 15.7543 37.4294 15.5342 37.9352 15.4451C38.4409 15.3559 38.9651 15.4016 39.4416 15.5765C39.918 15.7514 40.3251 16.0476 40.6115 16.4276C40.898 16.8076 41.0509 17.2544 41.0509 17.7114C41.0509 18.0148 40.9835 18.3152 40.8525 18.5955C40.7216 18.8758 40.5296 19.1305 40.2875 19.345C40.0454 19.5596 39.7581 19.7298 39.4419 19.8459C39.1256 19.962 38.7867 20.0218 38.4444 20.0218Z" fill="#0D0C22"/>
</g>
<defs>
<clipPath id="clip0_0_659">
<rect width="126.369" height="48" fill="white" transform="translate(0.0181885)"/>
</clipPath>
</defs>
</svg>
