<svg width="111" height="48" viewBox="0 0 111 48" fill="none" xmlns="http://www.w3.org/2000/svg">
<g style="mix-blend-mode:luminosity" clip-path="url(#clip0_0_663)">
<path fill-rule="evenodd" clip-rule="evenodd" d="M90.3603 20.5972C90.7826 21.2429 90.9207 21.9774 90.9663 22.8032L91.0263 23.9039V31.6007L91.0875 32.7025C91.21 34.502 92.7073 35.8325 94.7533 35.9457L95.99 36V23.9039L96.0512 22.8032C96.1021 21.9867 96.2389 21.2382 96.6676 20.588C97.1045 19.921 97.7317 19.3677 98.4862 18.9835C99.2406 18.5993 100.096 18.3978 100.966 18.3992C101.836 18.4006 102.691 18.6049 103.444 18.9915C104.196 19.3781 104.821 19.9335 105.255 20.6018C105.678 21.2475 105.809 21.9959 105.86 22.8032L105.921 23.9005V31.6007L105.983 32.7025C106.11 34.5112 107.596 35.8418 109.648 35.9457L110.885 36V22.8032C110.885 20.4697 109.839 18.2317 107.978 16.5813C106.117 14.9309 103.592 14.0032 100.959 14.0023C99.5497 14.001 98.1564 14.2662 96.8721 14.7803C95.5878 15.2944 94.442 16.0454 93.5114 16.9833C92.5803 16.0458 91.4345 15.2949 90.1503 14.7807C88.8661 14.2665 87.473 14.0007 86.0638 14.0012C84.0022 14.0012 82.0892 14.5555 80.5045 15.513C79.5376 14.5567 77.3744 14.0012 76.1325 14.0012V36L77.3744 35.9457C79.4516 35.8244 80.9528 34.5297 81.0336 32.7025L81.1001 31.6007V23.9039L81.1613 22.8032C81.2135 21.9728 81.3438 21.2429 81.7673 20.5926C82.2046 19.9261 82.8314 19.3728 83.5854 18.9882C84.3393 18.6035 85.1939 18.4009 86.0638 18.4005C86.9344 18.4006 87.7897 18.6037 88.5438 18.9893C89.2979 19.3748 89.9244 19.9294 90.3603 20.5972ZM5.39049 35.9469L6.6324 36H25.248L25.1868 34.9028C25.0187 33.0941 23.5735 31.7728 21.5262 31.655L20.2843 31.6007H9.11622L24.0061 18.3993L23.9449 17.3032C23.8484 15.4761 22.342 14.1559 20.2843 14.0554L19.0424 14.0058L0.426758 14.0012L0.488006 15.1019C0.650901 16.8932 2.11695 18.2422 4.14728 18.3462L5.39049 18.4005H16.5586L1.66867 31.6018L1.72992 32.7025C1.85241 34.5159 3.32889 35.8291 5.39049 35.9457V35.9469ZM71.2599 17.2212C72.4126 18.2426 73.3269 19.4552 73.9508 20.7898C74.5746 22.1244 74.8957 23.5548 74.8957 24.9994C74.8957 26.444 74.5746 27.8744 73.9508 29.209C73.3269 30.5436 72.4126 31.7562 71.2599 32.7776C68.9312 34.8399 65.7739 35.9983 62.4819 35.9983C59.1899 35.9983 56.0325 34.8399 53.7038 32.7776C48.8573 28.4823 48.8573 21.5166 53.7038 17.2212C54.8554 16.2002 56.2226 15.3902 57.7274 14.8375C59.2322 14.2848 60.8451 14.0002 62.474 14C64.1056 13.999 65.7214 14.2831 67.2289 14.836C68.7365 15.3889 70.1063 16.1999 71.2599 17.2224V17.2212ZM67.7479 20.3362C69.1439 21.5744 69.928 23.2531 69.928 25.0035C69.928 26.7538 69.1439 28.4326 67.7479 29.6707C66.3509 30.908 64.4568 31.6029 62.4819 31.6029C60.5069 31.6029 58.6128 30.908 57.2158 29.6707C55.8198 28.4326 55.0357 26.7538 55.0357 25.0035C55.0357 23.2531 55.8198 21.5744 57.2158 20.3362C58.6128 19.099 60.5069 18.404 62.4819 18.404C64.4568 18.404 66.3509 19.099 67.7479 20.3362ZM36.4265 14C38.0555 14.0004 39.6685 14.2851 41.1733 14.8381C42.6781 15.391 44.0453 16.2012 45.1968 17.2224C50.0445 21.5166 50.0445 28.4834 45.1968 32.7776C42.868 34.8399 39.7107 35.9983 36.4187 35.9983C33.1267 35.9983 29.9694 34.8399 27.6406 32.7776C22.7942 28.4823 22.7942 21.5166 27.6406 17.2212C28.7922 16.2002 30.1595 15.3902 31.6643 14.8375C33.1691 14.2848 34.782 14.0002 36.4109 14H36.4265ZM41.6848 20.3339C43.0811 21.5721 43.8655 23.2511 43.8655 25.0017C43.8655 26.7524 43.0811 28.4314 41.6848 29.6696C40.2877 30.9068 38.3936 31.6018 36.4187 31.6018C34.4438 31.6018 32.5496 30.9068 31.1526 29.6696C29.7567 28.4314 28.9725 26.7527 28.9725 25.0023C28.9725 23.252 29.7567 21.5732 31.1526 20.335C32.5496 19.0978 34.4438 18.4028 36.4187 18.4028C38.3936 18.4028 40.2877 19.0978 41.6848 20.335V20.3339Z" fill="#2D8CFF"/>
</g>
<defs>
<clipPath id="clip0_0_663">
<rect width="110.573" height="48" fill="white" transform="translate(0.426758)"/>
</clipPath>
</defs>
</svg>
