<svg width="125" height="48" fill="none" xmlns="http://www.w3.org/2000/svg"><g style="mix-blend-mode:luminosity" fill-rule="evenodd" clip-rule="evenodd"><path d="M76.65 37.807C69.47 42.497 59.065 45 50.105 45 37.54 45 26.23 40.88 17.673 34.032c-.673-.539-.07-1.273.736-.854 9.235 4.762 20.653 7.627 32.448 7.627 7.954 0 16.704-1.459 24.75-4.485 1.216-.458 2.232.705 1.044 1.487z" fill="#F90"/><path d="M79.636 34.78c-.914-1.04-6.067-.49-8.38-.248-.704.076-.812-.467-.177-.858 4.104-2.56 10.837-1.82 11.623-.963.785.863-.205 6.845-4.061 9.7-.592.44-1.156.206-.893-.376.866-1.916 2.807-6.211 1.888-7.255z" fill="#F90"/><path d="M71.418 15.604v-2.489c0-.376.323-.629.71-.629h12.57c.403 0 .725.258.725.63v2.13c-.005.358-.344.825-.946 1.564l-6.513 8.241c2.42-.052 4.975.267 7.169 1.364.495.247.63.61.667.967v2.655c0 .363-.452.787-.925.568-3.867-1.798-9.004-1.993-13.28.019-.435.21-.892-.21-.892-.572V27.53c0-.405.005-1.096.462-1.711l7.546-9.59h-6.567c-.403 0-.726-.254-.726-.625zm-45.85 15.525h-3.824c-.365-.024-.656-.267-.683-.577V13.158c0-.348.329-.624.737-.624h3.566c.371.014.667.267.694.581v2.274h.07c.93-2.197 2.678-3.222 5.034-3.222 2.393 0 3.888 1.025 4.964 3.222.925-2.197 3.028-3.222 5.281-3.222 1.603 0 3.357.586 4.427 1.902 1.21 1.463.962 3.59.962 5.453L46.791 30.5c0 .348-.328.629-.737.629h-3.818c-.382-.024-.689-.296-.689-.63v-9.218c0-.734.076-2.565-.107-3.26-.285-1.168-1.14-1.497-2.248-1.497-.925 0-1.894.548-2.286 1.425-.393.877-.355 2.345-.355 3.332V30.5c0 .348-.328.629-.737.629h-3.819c-.387-.024-.688-.296-.688-.63l-.005-9.218c0-1.94.36-4.796-2.356-4.796-2.748 0-2.64 2.784-2.64 4.796V30.5c0 .348-.329.629-.738.629zm70.676-18.962c5.674 0 8.745 4.318 8.745 9.81 0 5.305-3.393 9.514-8.745 9.514-5.572 0-8.605-4.319-8.605-9.7 0-5.415 3.071-9.624 8.605-9.624zm.032 3.551c-2.818 0-2.995 3.404-2.995 5.525 0 2.126-.038 6.664 2.963 6.664 2.964 0 3.103-3.661 3.103-5.892 0-1.468-.07-3.222-.57-4.614-.43-1.211-1.285-1.683-2.5-1.683zm16.071 15.411h-3.808c-.382-.024-.688-.296-.688-.63l-.006-17.398c.033-.32.35-.567.737-.567h3.544c.334.014.608.214.683.486v2.66h.07c1.071-2.379 2.571-3.513 5.212-3.513 1.716 0 3.388.548 4.464 2.05 1 1.391 1 3.732 1 5.414v10.95c-.043.305-.36.548-.737.548h-3.834c-.35-.024-.64-.253-.678-.548v-9.448c0-1.902.247-4.686-2.393-4.686-.931 0-1.786.553-2.211 1.392-.538 1.063-.607 2.122-.607 3.294V30.5c-.006.348-.339.629-.748.629zM61.398 22.82c0 1.32.038 2.422-.715 3.595-.608.953-1.576 1.54-2.646 1.54-1.468 0-2.329-.992-2.329-2.456 0-2.888 2.92-3.413 5.69-3.413v.734zm3.857 8.261c-.253.2-.619.215-.904.081-1.27-.934-1.5-1.368-2.194-2.26-2.098 1.898-3.587 2.465-6.303 2.465-3.222 0-5.723-1.759-5.723-5.281 0-2.75 1.678-4.624 4.077-5.54 2.076-.81 4.975-.953 7.19-1.177v-.438c0-.806.07-1.76-.467-2.455-.463-.624-1.356-.882-2.146-.882-1.458 0-2.754.663-3.071 2.036-.065.305-.318.605-.667.62l-3.706-.354c-.312-.062-.661-.286-.57-.71.85-3.985 4.916-5.186 8.551-5.186 1.861 0 4.292.438 5.76 1.687 1.862 1.54 1.684 3.595 1.684 5.83V24.8c0 1.587.742 2.283 1.441 3.14.243.306.296.673-.016.902-.78.577-2.167 1.65-2.93 2.25l-.006-.01zM11.268 22.82c0 1.32.037 2.422-.716 3.595-.608.953-1.57 1.54-2.646 1.54-1.468 0-2.323-.992-2.323-2.456 0-2.888 2.92-3.413 5.684-3.413v.734zm3.856 8.261c-.253.2-.619.215-.904.081-1.27-.934-1.495-1.368-2.194-2.26-2.098 1.898-3.582 2.465-6.304 2.465C2.506 31.367 0 29.608 0 26.086c0-2.75 1.683-4.624 4.077-5.54 2.076-.81 4.975-.953 7.19-1.177v-.438c0-.806.07-1.76-.462-2.455-.468-.624-1.36-.882-2.146-.882-1.457 0-2.759.663-3.076 2.036-.065.305-.318.605-.662.62l-3.71-.354c-.313-.062-.657-.286-.571-.71C1.495 13.201 5.556 12 9.191 12c1.861 0 4.292.438 5.76 1.687 1.861 1.54 1.684 3.595 1.684 5.83V24.8c0 1.587.742 2.283 1.441 3.14.248.306.302.673-.01.902-.78.577-2.168 1.65-2.931 2.25l-.011-.01z" fill="#000"/></g></svg>