<svg width="127" height="48" fill="none" xmlns="http://www.w3.org/2000/svg"><g style="mix-blend-mode:luminosity" clip-path="url(#clip0_0_659)"><path fill-rule="evenodd" clip-rule="evenodd" d="M125.591 30.563c-5.256 7.898-13.579 5.606-16.079 3.812-1.064.64-2.929 2.042-5.417 1.88-5.297-.345-7.195-7.054-7.195-7.054.039.026-1.578.494-2.451.486-.011 1.967-1.93 6.668-7.11 6.607-5.812-.067-6.993-7.74-6.993-7.74s-.579.71-2.778 1.42c.111-1.512.03 6.09-6.936 6.202-5.507.089-6.993-7.741-6.993-7.741s-.956.88-2.807 1.184c.118-1.536-.074 6.583-7.04 6.557-4.708-.017-6.317-4.823-6.192-5.49.16-.85-1.591 5.61-6.164 5.509-1.888-.05-3.294-1.26-4.177-2.875-1.182 1.199-2.898 2.875-4.823 2.875-3.455 0-4.979-2.561-4.72-9.877.021-.868-.05-1.209-1.023-1.339-.584-.086-1.182-.25-1.815-.336-.203.6-1.923 11.357-7.84 11.561-1.985.069-3.07-1.456-3.962-2.587-1.366 1.602-3.17 2.638-5.74 2.638-4.352 0-7.318-3.119-7.318-6.966s2.966-6.965 7.318-6.965c.77 0 .986.098 1.689.28-1.446-11.667 1.969-13.491 4.956-13.491 2.867 0 7.766 5.899.873 20.862 1.53 4.463 4.83 4.21 6.416-4.977.322-1.867-.54-4.388.801-4.74 2.454-.642 2.714 1.287 3.864 1.608 1.217.34 1.927.306 3.094.523 1.995.345 2.774 1.295 2.53 3.41-.291 2.678-.802 6.574.755 7.05 1.123.344 3.173-1.72 3.533-2.849.36-1.129.435-1.515.467-2.344.048-1.77.11-3.067.45-4.406.146-.518.312-.861.973-.885.544-.012 1.54-.157 1.977.145.584.389.511.783.444 1.822-.679 14.803 4.547 7.413 6.105 1.496-.555-6.691-.174-16.592 4.557-16.759 2.46-.086 3.548 1.661 3.668 2.965.338 3.683-1.557 9.783-4.05 13.886-1.425 8.37 6.23 10.026 7.453 3.344-2.002-.844-4.166-4.26-2.405-5.924.988-.934 5.102.408 5.17 3.335 2.017-.479 2.286-1.488 2.314-1.321-.554-6.691-.04-16.118 4.691-16.284 2.46-.087 3.548 1.66 3.668 2.964.338 3.683-1.558 9.783-4.05 13.886-1.425 8.37 6.23 10.026 7.453 3.344-1.483-.253-4.613-3.886-2.807-5.924.966-1.09 5.064 1.175 5.523 3.432 1.939-.486 2.202-1.464 2.23-1.3-.555-6.69-.04-16.118 4.69-16.284 2.46-.086 3.548 1.66 3.668 2.965.338 3.682-1.558 9.783-4.05 13.885-1.425 8.372 6.23 10.026 7.453 3.345-2.037-.301-4.933-4.137-2.602-6.1.93-.784 4.489 1.252 5.322 3.574 1.157-.04 1.877-.393 2.032-.43-1.848-7.854-.472-17.279 4.617-17.357 2.751-.043 5.44 1.318 4.26 8.79-1.127 7.13-5.177 10.123-5.168 10.169.236.854 2.314 8.002 7.548 4.23-.271-.543-.542-1.099-.694-1.772-.867-3.92.836-8.347 5.467-9.062 2.654-.41 5.153.735 5.549 3.316.65 4.224-3.653 7.282-5.29 7.946-.733-.37 6.644 3.824 11.022-4.579.253-.48.559-.44.956-.192.28.175 1.875 1.514 1.133 2.647zM10.502 28.252c-.222-.59-.68-1.891-.841-2.454C8.77 25.11 8.135 25 6.993 25c-2.54 0-4.035 2.08-4.035 4.325 0 2.243 1.629 4.325 4.168 4.325 2.201 0 3.876-1.326 4.387-3.204-.358-.732-.713-1.404-1.01-2.194zm3.416-16.05c-1.784 0-2.39 3.772-2.272 6.99.104 2.846 1.001 5.35 1.467 6.473.118.14.096.05.201.199 3.099-6.017 1.813-13.663.604-13.663zm37.157.118c-2.306-.235-2.291 8.28-2.005 10.19 1.198-1.698 3.279-9.733 2.005-10.19zm16.84 0c-2.306-.235-2.29 8.28-2.004 10.19 1.198-1.698 3.278-9.733 2.005-10.19zm16.708.118c-2.306-.234-2.291 8.28-2.005 10.19 1.198-1.698 3.278-9.732 2.005-10.19zm16.44-.617c-3.594.64-2.757 11.258-2.211 13.12 4.232-5.152 4.32-13.313 2.211-13.12zm13.466 13.27c-.183-.678-1.096-1.04-1.727-.95-1.804.218-3.554 2.21-2.876 5.241.15.676.528 1.297.522 1.276 4.037-2.4 4.38-4.292 4.081-5.568zm-76.085-5.07a2.85 2.85 0 01-1.448-.388 2.396 2.396 0 01-.96-1.037 2.067 2.067 0 01-.149-1.335c.1-.449.349-.86.713-1.183a2.724 2.724 0 011.335-.633 2.919 2.919 0 011.507.131c.476.175.883.472 1.17.852.286.38.439.826.439 1.283 0 .304-.068.604-.199.885a2.31 2.31 0 01-.564.749 2.65 2.65 0 01-.846.5 2.9 2.9 0 01-.998.177z" fill="#0D0C22"/></g><defs><clipPath id="clip0_0_659"><path fill="#fff" transform="translate(.018)" d="M0 0h126.369v48H0z"/></clipPath></defs></svg>