<svg width="129" height="48" fill="none" xmlns="http://www.w3.org/2000/svg"><g style="mix-blend-mode:luminosity" clip-path="url(#clip0_0_660)"><path d="M14.18 13.106v9.088H4.765v-9.088H.293V34.8h4.47v-8.793h9.418V34.8h4.47V13.106h-4.47zm18.78 14.681c0 .87-.39 1.703-1.084 2.318-.693.614-1.634.96-2.615.96-.98 0-1.922-.346-2.615-.96-.694-.615-1.084-1.449-1.084-2.318v-9.292h-4.24v9.292c0 1.864.835 3.652 2.323 4.97 1.487 1.319 3.505 2.06 5.608 2.06 2.104 0 4.121-.741 5.609-2.06 1.487-1.318 2.323-3.106 2.323-4.97v-9.292H32.96v9.292zm31.421-8.334c0-1.905 1.422-2.509 2.98-2.509 1.254 0 2.912.847 3.997 1.874l2.777-2.9c-1.386-1.662-4.199-2.812-6.501-2.812-4.6 0-7.927 2.388-7.927 6.347 0 7.344 10.128 5.014 10.128 9.124 0 1.268-1.388 2.388-2.979 2.388-2.508 0-3.32-1.087-4.473-2.236l-3.082 2.84c1.972 2.145 4.403 3.234 7.317 3.234 4.37 0 7.885-2.417 7.885-6.195 0-8.154-10.129-5.62-10.129-9.155m62.668 11.881c-2.506 0-3.218-.961-3.218-2.433v-6.513h3.895v-3.3h-3.895v-4.355l-4.299 1.71v13.268c0 3.393 2.641 5.104 6.264 5.104a9.763 9.763 0 001.696-.12l1.049-3.423a25.46 25.46 0 01-1.492.058m-77.94-12.725c-2.1 0-3.566.54-4.983 1.772v-7.14h-4.247V26.47c0 4.955 4.041 8.348 8.582 8.348 5.038 0 9.47-3.454 9.47-8.105 0-4.593-4.08-8.107-8.822-8.107v-.002zm-.026 12.427a5.27 5.27 0 01-2.677-.72c-.793-.47-1.41-1.137-1.775-1.917a3.823 3.823 0 01-.274-2.468 4.145 4.145 0 011.319-2.187 5.037 5.037 0 012.467-1.168 5.396 5.396 0 012.784.242c.88.324 1.634.871 2.163 1.574a3.93 3.93 0 01.812 2.372c0 1.133-.508 2.22-1.411 3.02-.904.802-2.13 1.252-3.408 1.252zm46.144-4.517c0-4.66-4.422-8.105-9.469-8.105-4.54 0-8.582 3.393-8.582 8.348V40h4.247v-7.15c1.415 1.23 2.883 1.772 4.981 1.772 4.743 0 8.822-3.512 8.822-8.107h.002zm-4.02-.047c0 .845-.284 1.671-.813 2.373a4.74 4.74 0 01-2.163 1.573c-.88.324-1.85.408-2.784.243a5.038 5.038 0 01-2.468-1.168 4.146 4.146 0 01-1.319-2.187 3.823 3.823 0 01.275-2.468c.365-.78.982-1.447 1.775-1.917a5.27 5.27 0 012.677-.72c1.278 0 2.504.45 3.408 1.251.903.801 1.411 1.888 1.411 3.02z" fill="#33475B"/><path d="M108.899 18.35v-3.743a3.165 3.165 0 001.363-1.058c.332-.46.51-.994.512-1.54v-.087c-.002-.763-.345-1.494-.954-2.034-.608-.54-1.433-.843-2.294-.845h-.099c-.861.002-1.685.306-2.294.845-.609.54-.952 1.27-.954 2.034v.087c.003.546.18 1.08.512 1.54.332.46.805.827 1.363 1.058v3.743a9.829 9.829 0 00-4.381 1.708l-11.597-7.997a2.86 2.86 0 00.132-.81c0-.641-.213-1.27-.615-1.804a3.604 3.604 0 00-1.643-1.198 4.103 4.103 0 00-2.117-.187 3.832 3.832 0 00-1.878.887 3.154 3.154 0 00-1.005 1.662c-.142.63-.07 1.283.206 1.876a3.366 3.366 0 001.348 1.46 4.007 4.007 0 003.846.112l11.402 7.867c-1.027 1.373-1.563 2.989-1.537 4.636.025 1.647.61 3.25 1.68 4.597l-3.47 3.075a3.332 3.332 0 00-.861-.124 3.3 3.3 0 00-1.674.45c-.495.293-.881.71-1.109 1.198a2.389 2.389 0 00-.171 1.542c.116.518.403.994.824 1.367.421.373.958.628 1.542.73.584.104 1.19.05 1.74-.151a2.964 2.964 0 001.352-.983 2.46 2.46 0 00.508-1.484 2.356 2.356 0 00-.14-.763l3.432-3.042a9.857 9.857 0 003.804 1.525c1.383.245 2.81.207 4.174-.112a9.706 9.706 0 003.693-1.726A8.342 8.342 0 00116 29.67a7.399 7.399 0 00.728-3.643 7.523 7.523 0 00-1.153-3.557 8.648 8.648 0 00-2.8-2.746 9.957 9.957 0 00-3.876-1.375zm-1.421 12.312c-.94 0-1.858-.247-2.639-.71a4.368 4.368 0 01-1.749-1.888 3.77 3.77 0 01-.27-2.432 4.081 4.081 0 011.3-2.155 4.963 4.963 0 012.431-1.152 5.318 5.318 0 012.744.24c.868.318 1.61.857 2.131 1.55.522.692.801 1.506.801 2.338 0 1.116-.501 2.187-1.391 2.976-.891.79-2.099 1.233-3.358 1.233z" fill="#FF7A59"/></g><defs><clipPath id="clip0_0_660"><path fill="#fff" transform="translate(.293)" d="M0 0h128.626v48H0z"/></clipPath></defs></svg>