<svg width="126" height="48" fill="none" xmlns="http://www.w3.org/2000/svg"><g style="mix-blend-mode:luminosity" clip-path="url(#clip0_0_662)"><path d="M17.502 38.066c-1.884.293-3.801.381-5.784.616l-6.05-15.703v16.377c-1.884.175-3.603.41-5.388.644V10h5.025l6.875 17.022V10h5.322v28.066zm10.413-17.08c2.05 0 5.19-.088 7.074-.088v4.688c-2.347 0-5.09 0-7.074.088v6.973c3.107-.176 6.214-.41 9.355-.499v4.512l-14.644 1.025V10h14.643v4.688h-9.354v6.298zm29.023-6.298H51.45V36.25c-1.785 0-3.57 0-5.288.059V14.688h-5.487V10h16.263v4.688zm8.594 5.976h7.24v4.688h-7.24v10.634h-5.19V10h14.776v4.688h-9.586v5.976zm18.18 11.22c3.009.06 6.05.265 8.992.41v4.63c-4.727-.264-9.454-.527-14.28-.615V10h5.289v21.885zm13.454 5.362c1.686.088 3.471.176 5.19.351V10h-5.19v27.246zM125.528 10l-6.71 14.268L125.528 40c-1.983-.234-3.967-.557-5.95-.85l-3.801-8.671-3.868 7.968c-1.917-.293-3.768-.38-5.685-.615l6.809-13.74L106.885 10h5.685l3.471 7.88 3.702-7.88h5.785z" fill="#D81F26"/></g><defs><clipPath id="clip0_0_662"><path fill="#fff" transform="translate(.28)" d="M0 0h125.241v48H0z"/></clipPath></defs></svg>