<svg width="147" height="48" fill="none" xmlns="http://www.w3.org/2000/svg"><g style="mix-blend-mode:luminosity" clip-path="url(#clip0_0_661)" fill="#000"><path d="M51.525 34.775V20.22h.293l11.954 14.555h3.761V13.4h-4.18v14.518h-.292L51.107 13.401h-3.762v21.374h4.18zm27.837.33c5.517 0 8.903-3.153 8.903-8.432 0-5.243-3.386-8.433-8.903-8.433-5.475 0-8.903 3.19-8.903 8.433.042 5.279 3.386 8.432 8.903 8.432zm0-3.08c-2.926 0-4.598-1.943-4.598-5.352 0-3.373 1.672-5.353 4.598-5.353s4.598 1.98 4.598 5.352c0 3.41-1.672 5.353-4.598 5.353zm12.706-17.414v4.069h-2.925v2.933h2.925v8.836c0 3.153 1.672 4.4 5.935 4.4.795 0 1.589-.074 2.216-.184v-2.86c-.502.037-.836.074-1.421.074-1.756 0-2.55-.697-2.55-2.31v-7.956h3.971V18.68h-3.971v-4.07h-4.18zm10.658 20.164h4.18V18.57h-4.18v16.205zm2.09-18.881c1.38 0 2.508-.99 2.508-2.2 0-1.247-1.128-2.237-2.508-2.237-1.379 0-2.507.99-2.507 2.237 0 1.21 1.128 2.2 2.507 2.2zm13.543 19.21c5.517 0 8.902-3.152 8.902-8.431 0-5.243-3.385-8.433-8.902-8.433-5.476 0-8.903 3.19-8.903 8.433 0 5.279 3.344 8.432 8.903 8.432zm0-3.079c-2.926 0-4.598-1.943-4.598-5.352 0-3.373 1.672-5.353 4.598-5.353 2.884 0 4.597 1.98 4.597 5.352-.042 3.41-1.713 5.353-4.597 5.353zm11.368 2.75h4.18v-9.422c0-2.383 1.588-3.887 4.054-3.887 2.55 0 3.72 1.247 3.72 3.703v9.606h4.18V24.289c0-3.886-2.257-6.049-6.353-6.049-2.759 0-4.598 1.1-5.476 2.933h-.292V18.57h-4.054c.041 0 .041 16.205.041 16.205z"/><path fill-rule="evenodd" clip-rule="evenodd" d="M7.27 12.033c1.216.87 1.656.8 3.934.663l21.457-1.144c.465 0 .077-.412-.078-.458l-3.572-2.266c-.673-.458-1.605-1.007-3.339-.87L4.914 9.308c-.75.07-.906.413-.595.665l2.95 2.06zm1.293 4.417v19.96c0 1.076.596 1.465 1.967 1.396l23.58-1.213c1.372-.069 1.527-.801 1.527-1.671V15.1c0-.87-.388-1.35-1.216-1.282L9.78 15.1c-.906.068-1.217.48-1.217 1.35zm23.27 1.076c.155.595 0 1.213-.674 1.282l-1.139.206v14.74c-.983.459-1.889.733-2.665.733-1.217 0-1.527-.343-2.433-1.35l-7.429-10.323v9.98l2.356.457s0 1.213-1.89 1.213l-5.228.275c-.156-.275 0-.938.517-1.076l1.372-.343V20.136l-1.89-.138c-.155-.595.233-1.465 1.295-1.534l5.616-.343 7.74 10.438v-9.225l-1.968-.206c-.155-.732.466-1.282 1.217-1.35l5.202-.252zM3.18 7.478L24.792 6.08c2.64-.206 3.34-.068 4.996 1.007l6.884 4.28c1.14.733 1.528.94 1.528 1.74v23.508c0 1.465-.596 2.335-2.718 2.472l-25.08 1.35c-1.606.07-2.356-.137-3.185-1.075L2.12 33.526C1.212 32.45.824 31.649.824 30.71V9.812c0-1.213.622-2.197 2.356-2.334z"/></g><defs><clipPath id="clip0_0_661"><path fill="#fff" transform="translate(.824)" d="M0 0h145.551v48H0z"/></clipPath></defs></svg>