<svg width="111" height="48" fill="none" xmlns="http://www.w3.org/2000/svg"><g style="mix-blend-mode:luminosity" clip-path="url(#clip0_0_663)"><path fill-rule="evenodd" clip-rule="evenodd" d="M90.36 20.597c.423.646.56 1.38.606 2.206l.06 1.1v7.698l.062 1.102c.122 1.799 1.62 3.13 3.665 3.243L95.99 36V23.904l.061-1.1c.051-.817.188-1.566.617-2.216a4.722 4.722 0 011.818-1.605 5.46 5.46 0 012.48-.584 5.46 5.46 0 012.478.592 4.719 4.719 0 011.811 1.61c.423.646.554 1.395.605 2.202l.061 1.098v7.7l.062 1.102c.127 1.808 1.613 3.139 3.665 3.243l1.237.054V22.803c0-2.333-1.046-4.571-2.907-6.222-1.861-1.65-4.386-2.578-7.019-2.579a10.991 10.991 0 00-4.087.778 9.917 9.917 0 00-3.36 2.203 9.931 9.931 0 00-3.362-2.202 11.004 11.004 0 00-4.086-.78c-2.062 0-3.975.555-5.56 1.512-.966-.956-3.13-1.512-4.372-1.512V36l1.242-.054c2.078-.122 3.579-1.416 3.66-3.243L81.1 31.6v-7.697l.061-1.1c.052-.831.183-1.561.606-2.211a4.734 4.734 0 011.818-1.605 5.472 5.472 0 012.479-.587c.87 0 1.726.203 2.48.588.754.386 1.38.94 1.816 1.608zM5.39 35.947L6.632 36h18.616l-.061-1.097c-.168-1.809-1.614-3.13-3.66-3.248l-1.243-.054H9.116l14.89-13.202-.061-1.096c-.097-1.827-1.603-3.147-3.66-3.248l-1.243-.05-18.615-.004.061 1.1c.163 1.792 1.629 3.141 3.66 3.245l1.242.055h11.17L1.669 31.6l.06 1.102c.123 1.813 1.6 3.126 3.661 3.243zM71.26 17.22a11.015 11.015 0 012.69 3.569 9.924 9.924 0 01.946 4.21 9.924 9.924 0 01-.945 4.209 11.015 11.015 0 01-2.691 3.569c-2.329 2.062-5.486 3.22-8.778 3.22-3.292 0-6.45-1.158-8.778-3.22-4.847-4.296-4.847-11.261 0-15.557a12.615 12.615 0 014.023-2.383A13.796 13.796 0 0162.474 14a13.808 13.808 0 014.755.836 12.624 12.624 0 014.03 2.386zm-3.512 3.115c1.396 1.238 2.18 2.917 2.18 4.668 0 1.75-.784 3.429-2.18 4.667-1.397 1.237-3.291 1.932-5.266 1.932s-3.87-.695-5.266-1.932c-1.396-1.238-2.18-2.917-2.18-4.668 0-1.75.784-3.429 2.18-4.667 1.397-1.237 3.29-1.932 5.266-1.932 1.975 0 3.869.695 5.266 1.932zM36.426 14c1.63 0 3.242.285 4.747.838a12.614 12.614 0 014.024 2.384c4.847 4.295 4.847 11.261 0 15.556-2.329 2.062-5.486 3.22-8.778 3.22-3.292 0-6.45-1.158-8.778-3.22-4.847-4.296-4.847-11.261 0-15.557a12.615 12.615 0 014.023-2.383A13.796 13.796 0 0136.411 14h.015zm5.259 6.334c1.396 1.238 2.18 2.917 2.18 4.668 0 1.75-.784 3.43-2.18 4.668-1.397 1.237-3.291 1.932-5.266 1.932s-3.87-.695-5.266-1.932c-1.396-1.239-2.18-2.917-2.18-4.668 0-1.75.784-3.429 2.18-4.667 1.397-1.237 3.29-1.932 5.266-1.932 1.975 0 3.869.695 5.266 1.932v-.001z" fill="#2D8CFF"/></g><defs><clipPath id="clip0_0_663"><path fill="#fff" transform="translate(.427)" d="M0 0h110.573v48H0z"/></clipPath></defs></svg>