<svg width="129" height="48" viewBox="0 0 129 48" fill="none" xmlns="http://www.w3.org/2000/svg">
<g style="mix-blend-mode:luminosity" clip-path="url(#clip0_0_660)">
<path d="M14.1807 13.1062V22.1939H4.76376V13.1062H0.292969V34.7995H4.76376V26.0069H14.1807V34.7995H18.6515V13.1062H14.1807Z" fill="#33475B"/>
<path d="M32.9597 27.7867C32.9597 28.6561 32.57 29.4899 31.8764 30.1046C31.1828 30.7194 30.242 31.0647 29.2611 31.0647C28.2801 31.0647 27.3394 30.7194 26.6457 30.1046C25.9521 29.4899 25.5624 28.6561 25.5624 27.7867V18.4951H21.3216V27.7867C21.3216 29.6511 22.1573 31.4392 23.6448 32.7575C25.1323 34.0759 27.1498 34.8165 29.2534 34.8165C31.357 34.8165 33.3745 34.0759 34.862 32.7575C36.3495 31.4392 37.1852 29.6511 37.1852 27.7867V18.4951H32.9597V27.7867Z" fill="#33475B"/>
<path d="M64.3811 19.4527C64.3811 17.5482 65.8027 16.9444 67.3601 16.9444C68.6153 16.9444 70.2735 17.7908 71.3578 18.8178L74.1353 15.9174C72.7487 14.2555 69.9362 13.1062 67.634 13.1062C63.0339 13.1062 59.7066 15.4942 59.7066 19.4527C59.7066 26.797 69.8354 24.4673 69.8354 28.5773C69.8354 29.845 68.4466 30.9652 66.8563 30.9652C64.3482 30.9652 63.5356 29.878 62.3834 28.7287L59.3013 31.569C61.2728 33.7143 63.7042 34.8034 66.6176 34.8034C70.9876 34.8034 74.5033 32.3863 74.5033 28.6084C74.5033 20.4545 64.3745 22.988 64.3745 19.4527" fill="#33475B"/>
<path d="M127.042 31.3339C124.536 31.3339 123.824 30.3729 123.824 28.9013V22.3878H127.719V19.0874H123.824V14.7329L119.525 16.4432V29.7108C119.525 33.1044 122.166 34.8148 125.789 34.8148C126.358 34.824 126.925 34.7837 127.485 34.6944L128.534 31.2717C128.061 31.3008 127.518 31.33 127.042 31.33" fill="#33475B"/>
<path d="M49.1025 18.6046C47.0018 18.6046 45.5363 19.1443 44.1191 20.3771V13.2366H39.8717V26.4712C39.8717 31.4257 43.9132 34.8193 48.4541 34.8193C53.4922 34.8193 57.9236 31.3655 57.9236 26.7139C57.9236 22.1205 53.8449 18.6066 49.1025 18.6066V18.6046ZM49.0762 31.0316C48.1231 31.0316 47.1913 30.7811 46.3988 30.3118C45.6063 29.8425 44.9887 29.1754 44.6239 28.395C44.2592 27.6145 44.1638 26.7558 44.3497 25.9272C44.5356 25.0987 44.9946 24.3377 45.6686 23.7404C46.3425 23.143 47.2012 22.7363 48.136 22.5715C49.0708 22.4067 50.0398 22.4912 50.9204 22.8145C51.8009 23.1378 52.5536 23.6852 53.0831 24.3876C53.6126 25.09 53.8952 25.9158 53.8952 26.7605C53.8952 27.8933 53.3875 28.9796 52.4838 29.7806C51.58 30.5816 50.3543 31.0316 49.0762 31.0316Z" fill="#33475B"/>
<path d="M95.2208 26.515C95.2208 21.8557 90.7982 18.4096 85.7513 18.4096C81.2104 18.4096 77.169 21.8032 77.169 26.7577V40.0001H81.4163V32.8499C82.8314 34.0807 84.299 34.6224 86.3975 34.6224C91.1399 34.6224 95.2186 31.1103 95.2186 26.515H95.2208ZM91.1991 26.4684C91.1991 27.3132 90.9164 28.139 90.3869 28.8413C89.8574 29.5437 89.1047 30.0912 88.2242 30.4144C87.3436 30.7377 86.3746 30.8223 85.4398 30.6575C84.505 30.4927 83.6464 30.0859 82.9724 29.4886C82.2984 28.8912 81.8395 28.1302 81.6535 27.3017C81.4676 26.4732 81.563 25.6144 81.9277 24.834C82.2925 24.0535 82.9102 23.3865 83.7027 22.9171C84.4952 22.4478 85.4269 22.1973 86.38 22.1973C87.6581 22.1973 88.8838 22.6473 89.7876 23.4483C90.6913 24.2493 91.1991 25.3357 91.1991 26.4684Z" fill="#33475B"/>
<path d="M108.899 18.3496V14.6066C109.457 14.3756 109.93 14.0088 110.262 13.5489C110.594 13.089 110.772 12.555 110.774 12.009V11.9216C110.772 11.1587 110.429 10.4276 109.82 9.88807C109.212 9.34858 108.387 9.04458 107.526 9.04254H107.427C106.566 9.04458 105.742 9.34858 105.133 9.88807C104.524 10.4276 104.181 11.1587 104.179 11.9216V12.009C104.182 12.555 104.359 13.089 104.691 13.5489C105.023 14.0088 105.496 14.3756 106.054 14.6066V18.3496C104.449 18.5671 102.938 19.1565 101.673 20.0581L90.0765 12.0614C90.159 11.7976 90.2032 11.5256 90.2079 11.2519C90.2088 10.6095 89.9947 9.98128 89.5927 9.44673C89.1908 8.91217 88.619 8.49527 87.9497 8.24873C87.2804 8.00219 86.5436 7.93708 85.8326 8.06166C85.1215 8.18623 84.4681 8.49487 83.955 8.94857C83.4419 9.40226 83.0921 9.98063 82.9498 10.6105C82.8076 11.2404 82.8793 11.8936 83.1558 12.4873C83.4324 13.0811 83.9014 13.5889 84.5036 13.9464C85.1058 14.3039 85.814 14.4952 86.5388 14.496C87.1755 14.4939 87.8003 14.3432 88.3504 14.0591L99.7519 21.9257C98.7249 23.2989 98.1891 24.9146 98.2145 26.5619C98.2399 28.2091 98.8253 29.8113 99.8942 31.1591L96.4245 34.2343C96.146 34.1557 95.8559 34.1138 95.5636 34.11C94.9679 34.11 94.3856 34.2666 93.8903 34.5599C93.395 34.8532 93.009 35.2701 92.781 35.7579C92.553 36.2457 92.4934 36.7824 92.6096 37.3002C92.7258 37.818 93.0127 38.2937 93.4339 38.667C93.8551 39.0403 94.3918 39.2946 94.9761 39.3976C95.5603 39.5006 96.1659 39.4477 96.7163 39.2457C97.2666 39.0436 97.737 38.7015 98.068 38.2625C98.3989 37.8235 98.5756 37.3074 98.5756 36.7794C98.5716 36.5204 98.5243 36.2633 98.4354 36.0165L101.868 32.9743C102.988 33.7328 104.29 34.2544 105.672 34.4993C107.055 34.7441 108.482 34.7058 109.846 34.3871C111.209 34.0685 112.472 33.478 113.539 32.6607C114.605 31.8434 115.447 30.8209 116 29.6713C116.552 28.5217 116.801 27.2754 116.728 26.0275C116.654 24.7796 116.26 23.5631 115.575 22.4709C114.89 21.3786 113.932 20.4395 112.775 19.7253C111.618 19.0111 110.293 18.5405 108.899 18.3496ZM107.478 30.6621C106.538 30.6621 105.62 30.4152 104.839 29.9527C104.058 29.4902 103.45 28.8329 103.09 28.0638C102.731 27.2947 102.637 26.4484 102.82 25.632C103.003 24.8155 103.456 24.0655 104.12 23.4769C104.784 22.8883 105.63 22.4874 106.551 22.325C107.472 22.1626 108.427 22.2459 109.295 22.5645C110.163 22.8831 110.905 23.4225 111.426 24.1147C111.948 24.8069 112.227 25.6206 112.227 26.4531C112.227 27.5694 111.726 28.6399 110.836 29.4293C109.945 30.2186 108.737 30.6621 107.478 30.6621Z" fill="#FF7A59"/>
</g>
<defs>
<clipPath id="clip0_0_660">
<rect width="128.626" height="48" fill="white" transform="translate(0.292969)"/>
</clipPath>
</defs>
</svg>
