<svg width="147" height="48" viewBox="0 0 147 48" fill="none" xmlns="http://www.w3.org/2000/svg">
<g style="mix-blend-mode:luminosity" clip-path="url(#clip0_0_661)">
<path d="M51.5251 34.7749V20.2199H51.8177L63.7717 34.7749H67.5334V13.4006H63.3537V27.919H63.0611L51.1072 13.4006H47.3454V34.7749H51.5251ZM79.3619 35.1049C84.8792 35.1049 88.2647 31.9519 88.2647 26.6725C88.2647 21.4297 84.8792 18.2401 79.3619 18.2401C73.8865 18.2401 70.4592 21.4297 70.4592 26.6725C70.501 31.9519 73.8447 35.1049 79.3619 35.1049ZM79.3619 32.0252C76.4361 32.0252 74.7643 30.0821 74.7643 26.6725C74.7643 23.2995 76.4361 21.3198 79.3619 21.3198C82.2877 21.3198 83.9596 23.2995 83.9596 26.6725C83.9596 30.0821 82.2877 32.0252 79.3619 32.0252ZM92.0683 14.6105V18.68H89.1425V21.6131H92.0683V30.4487C92.0683 33.6017 93.7401 34.8483 98.0034 34.8483C98.7976 34.8483 99.5917 34.7749 100.219 34.6649V31.8053C99.7171 31.8419 99.3827 31.8786 98.7976 31.8786C97.0421 31.8786 96.2479 31.182 96.2479 29.5688V21.6131H100.219V18.68H96.2479V14.6105H92.0683ZM102.726 34.7749H106.906V18.5701H102.726V34.7749ZM104.816 15.8937C106.196 15.8937 107.324 14.9038 107.324 13.6939C107.324 12.4474 106.196 11.4575 104.816 11.4575C103.437 11.4575 102.309 12.4474 102.309 13.6939C102.309 14.9038 103.437 15.8937 104.816 15.8937ZM118.359 35.1049C123.876 35.1049 127.261 31.9519 127.261 26.6725C127.261 21.4297 123.876 18.2401 118.359 18.2401C112.883 18.2401 109.456 21.4297 109.456 26.6725C109.456 31.9519 112.8 35.1049 118.359 35.1049ZM118.359 32.0252C115.433 32.0252 113.761 30.0821 113.761 26.6725C113.761 23.2995 115.433 21.3198 118.359 21.3198C121.243 21.3198 122.956 23.2995 122.956 26.6725C122.914 30.0821 121.243 32.0252 118.359 32.0252ZM129.727 34.7749H133.907V25.3526C133.907 22.9696 135.495 21.4664 137.961 21.4664C140.511 21.4664 141.681 22.7129 141.681 25.1693V34.7749H145.861V24.2894C145.861 20.4032 143.604 18.2401 139.508 18.2401C136.749 18.2401 134.91 19.34 134.032 21.1731H133.74V18.5701H129.686C129.727 18.5701 129.727 34.7749 129.727 34.7749Z" fill="black"/>
<path fill-rule="evenodd" clip-rule="evenodd" d="M7.26924 12.0326C8.48575 12.9024 8.92576 12.8337 11.2035 12.6964L32.6606 11.5519C33.1265 11.5519 32.7383 11.1399 32.583 11.0941L29.0111 8.82806C28.3381 8.37028 27.4063 7.82093 25.6722 7.95826L4.91388 9.30874C4.16327 9.37741 4.00797 9.72075 4.31857 9.97254L7.26924 12.0326ZM8.5634 16.4502V36.4098C8.5634 37.4857 9.15872 37.8748 10.5305 37.8061L34.1101 36.593C35.4819 36.5243 35.6372 35.7918 35.6372 34.922V15.0998C35.6372 14.23 35.2489 13.7493 34.4207 13.818L9.77991 15.0998C8.874 15.1684 8.5634 15.5804 8.5634 16.4502ZM31.8323 17.5261C31.9876 18.1212 31.8323 18.7392 31.1594 18.8079L30.0205 19.0139V33.7547C29.037 34.2125 28.1311 34.4871 27.3546 34.4871C26.1381 34.4871 25.8275 34.1438 24.9215 33.1367L17.4931 22.8135V32.7933L19.8485 33.2511C19.8485 33.2511 19.8485 34.4642 17.959 34.4642L12.7306 34.7389C12.5753 34.4642 12.7306 33.8005 13.2483 33.6631L14.6201 33.3198V20.1355L12.7306 19.9981C12.5753 19.403 12.9635 18.5332 14.0247 18.4645L19.6414 18.1212L27.3804 28.5588V19.3343L25.4133 19.1283C25.258 18.3959 25.8792 17.8465 26.6298 17.7778L31.8323 17.5261ZM3.17971 7.47759L24.7921 6.08133C27.4322 5.87532 28.1311 6.01266 29.7876 7.08847L36.6725 11.3688C37.8114 12.1013 38.1996 12.3073 38.1996 13.1084V36.6159C38.1996 38.0808 37.6043 38.9506 35.4819 39.0879L10.4011 40.4384C8.79635 40.5071 8.04574 40.3011 7.21748 39.3626L2.1185 33.5258C1.21259 32.45 0.824341 31.6488 0.824341 30.7104V9.81231C0.824341 8.59917 1.44554 7.61492 3.17971 7.47759Z" fill="black"/>
</g>
<defs>
<clipPath id="clip0_0_661">
<rect width="145.551" height="48" fill="white" transform="translate(0.824341)"/>
</clipPath>
</defs>
</svg>
