<svg width="601" height="515" fill="none" xmlns="http://www.w3.org/2000/svg"><g clip-path="url(#clip0_0_597)"><path d="M311.536 432.535l17.601-5.186L324.001 445l5.136 17.601-17.601-5.136-17.651 5.136L299.071 445l-5.186-17.651 17.651 5.186z" fill="#000" stroke="#fff" stroke-miterlimit="10"/></g><g clip-path="url(#clip1_0_597)"><path d="M125.485 345.509l31.476 17.15-31.476 17.288-17.219 31.407-17.219-31.407-31.476-17.288 31.476-17.15 17.219-31.545 17.219 31.545z" fill="#000" stroke="#fff" stroke-miterlimit="10"/></g><path d="M565.118 389.333c-1.9 3.444-5.438 5.935-10.534 7.48-5.097 1.546-11.71 2.13-19.671 1.787-15.92-.687-37.122-5.076-62.136-12.732-50.021-15.31-115.183-43.652-183.622-81.403-68.439-37.75-127.173-77.748-166.805-111.89-19.82-17.074-34.842-32.666-43.915-45.765-4.538-6.551-7.571-12.455-8.983-17.592-1.411-5.134-1.192-9.456.708-12.899 1.9-3.444 5.438-5.935 10.533-7.48 5.098-1.546 11.71-2.13 19.671-1.787 15.921.687 37.123 5.076 62.137 12.732 50.02 15.31 115.182 43.652 183.622 81.403 68.439 37.75 127.172 77.747 166.805 111.89 19.819 17.073 34.841 32.665 43.915 45.765 4.537 6.551 7.571 12.455 8.983 17.592 1.411 5.134 1.191 9.455-.708 12.899z" stroke="#000"/><path d="M544.887 426.007c-1.9 3.444-5.438 5.935-10.533 7.48-5.098 1.546-11.71 2.13-19.671 1.786-15.921-.686-37.123-5.075-62.137-12.731-50.02-15.31-115.182-43.652-183.622-81.403-68.439-37.751-127.172-77.748-166.805-111.89-19.82-17.074-34.841-32.666-43.915-45.766-4.537-6.55-7.57-12.454-8.983-17.591-1.41-5.134-1.191-9.456.709-12.9 1.9-3.443 5.437-5.935 10.533-7.48 5.098-1.545 11.71-2.129 19.67-1.786 15.921.687 37.123 5.076 62.137 12.732 50.021 15.309 115.183 43.652 183.622 81.402 68.44 37.751 127.173 77.748 166.805 111.89 19.82 17.074 34.842 32.666 43.916 45.766 4.537 6.551 7.57 12.455 8.982 17.591 1.411 5.134 1.192 9.456-.708 12.9z" stroke="#000"/><path d="M524.659 462.681c-1.9 3.444-5.438 5.935-10.534 7.48-5.097 1.546-11.71 2.13-19.671 1.787-15.92-.687-37.122-5.076-62.136-12.732-50.021-15.31-115.183-43.652-183.622-81.403-68.439-37.75-127.173-77.747-166.805-111.89-19.82-17.073-34.842-32.665-43.916-45.765-4.537-6.551-7.57-12.455-8.982-17.592-1.411-5.134-1.192-9.455.708-12.899 1.9-3.444 5.438-5.935 10.533-7.48 5.098-1.546 11.71-2.13 19.671-1.787 15.92.687 37.123 5.076 62.137 12.732 50.02 15.31 115.182 43.652 183.622 81.403 68.439 37.75 127.172 77.748 166.805 111.89 19.819 17.074 34.841 32.666 43.915 45.765 4.537 6.551 7.571 12.455 8.983 17.592 1.411 5.134 1.191 9.455-.708 12.899z" stroke="#000"/><circle cx="132.037" cy="104.5" r="15.5" fill="#B9FF66"/><circle cx="421.537" cy="435" r="10" fill="#B9FF66"/><circle cx="82.037" cy="64.5" r="23.5" fill="#000"/><path d="M306.51 383.59c-6.304 2.154-13.509-2.115-16.015-9.519L251.496 259.81l22.789-7.795 39.038 114.418c2.506 7.325-.549 15.003-6.813 17.157z" fill="#000"/><path d="M303.103 385c-1.841 0-3.72-.431-5.521-1.332-3.642-1.802-6.539-5.17-7.949-9.323l-38.998-114.261a.861.861 0 01.548-1.097l22.788-7.795c.235-.079.47-.079.666.039a.927.927 0 01.431.509l39.037 114.419c2.624 7.755-.665 15.942-7.361 18.253a11.248 11.248 0 01-3.641.588zm-50.51-124.642l38.724 113.439c1.253 3.721 3.837 6.777 7.048 8.343 2.584 1.254 5.364 1.489 7.87.627 5.795-1.998 8.614-9.205 6.265-16.06l-38.764-113.596-21.143 7.247z" fill="#000"/><path d="M270.251 153.382l-73.729 52.606-28.701 29.81-11.277 19.938-.039.156c-2.232 3.447-.94 11.399 3.25 19.507 4.111 7.991 9.906 13.554 13.978 13.867l-.117.078 21.653 2.351 40.525-6.464 86.024-30.788 106.933 18.332.744.039c-26.86-5.014-63.118-40.934-89.469-91.738-26.313-50.766-34.692-100.944-23.141-125.7h-.039l-46.008 96.752-.587 1.254z" fill="#B9FF66"/><path d="M447.266 270.603c26.428-13.73 21.318-75.974-11.414-139.026-32.731-63.052-80.689-103.036-107.116-89.306-26.427 13.73-21.317 75.974 11.414 139.026 32.731 63.052 80.689 103.036 107.116 89.306z" fill="#fff"/><path d="M435.643 274.185c-11.511 0-25.372-6.424-40.29-18.919-20.322-17-40.252-43.206-56.11-73.838-24.002-46.378-33.908-93.932-25.216-121.155 2.898-9.088 7.753-15.434 14.37-18.842 13.156-6.737 31.677-1.018 52.194 16.139 20.322 17 40.252 43.205 56.109 73.837 24.042 46.379 33.948 93.932 25.216 121.156-2.897 9.088-7.752 15.433-14.37 18.841-3.563 1.88-7.556 2.781-11.903 2.781zM340.379 40.413c-4.033 0-7.792.823-11.16 2.585-6.225 3.173-10.767 9.205-13.508 17.862-8.575 26.832 1.292 73.877 25.098 119.863 32.421 62.556 79.955 102.589 105.994 89.232 6.225-3.173 10.767-9.205 13.508-17.862 8.575-26.832-1.292-73.877-25.098-119.863-28.231-54.448-67.856-91.817-94.834-91.817z" fill="#000"/><path d="M435.643 274.185c-11.512 0-25.373-6.424-40.291-18.919-20.321-17.001-40.251-43.206-56.109-73.838-24.002-46.378-33.909-93.932-25.216-121.155 2.897-9.088 7.753-15.434 14.37-18.842 8.81-4.544 20.321-3.408 33.282 3.251 12.412 6.385 25.842 17.706 38.92 32.708a.867.867 0 01-.078 1.215.865.865 0 01-1.214-.079c-26.547-30.475-53.408-44.106-70.088-35.528-6.226 3.173-10.768 9.205-13.508 17.862-8.575 26.832 1.292 73.877 25.098 119.863 28.192 54.409 67.856 91.817 94.795 91.817 4.033 0 7.792-.823 11.159-2.585 6.226-3.173 10.768-9.205 13.509-17.862 8.575-26.832-1.292-73.877-25.099-119.863-7.087-13.71-15.075-26.598-23.65-38.31-.274-.391-.195-.94.196-1.214.392-.274.94-.196 1.214.196 8.653 11.79 16.641 24.756 23.806 38.544 24.003 46.339 33.909 93.893 25.177 121.117-2.897 9.087-7.753 15.433-14.37 18.841-3.563 1.88-7.557 2.781-11.903 2.781z" fill="#000"/><path d="M387.304 190.339c6.122-3.181 4.944-17.588-2.63-32.18-7.575-14.592-18.679-23.843-24.801-20.662-6.122 3.181-4.945 17.588 2.63 32.18 7.575 14.592 18.678 23.843 24.801 20.662z" fill="#B9FF66"/><path d="M384.624 191.848c-6.734 0-16.131-8.696-22.905-21.818-5.639-10.89-7.949-22.093-5.874-28.556.744-2.272 1.958-3.878 3.642-4.74 6.656-3.408 18.05 5.876 25.96 21.113 5.638 10.89 7.948 22.093 5.873 28.556-.744 2.272-1.958 3.878-3.641 4.74-.94.47-1.958.705-3.055.705zm-22.083-54.134c-.822 0-1.605.156-2.271.509-1.292.666-2.232 1.919-2.819 3.76-1.919 6.033.313 16.765 5.756 27.263 7.204 13.906 18.05 23.268 23.649 20.369 1.292-.666 2.232-1.919 2.82-3.76 1.918-6.072-.353-16.765-5.756-27.263-6.343-12.182-15.427-20.878-21.379-20.878z" fill="#B9FF66"/><path d="M429.692 259.574c-10.102 0-22.24-5.64-35.318-16.569-17.777-14.885-35.24-37.839-49.101-64.632-21.026-40.581-29.679-82.22-22.083-106.075 2.545-7.991 6.813-13.553 12.647-16.57 13.391-6.854 33.086 1.058 54.073 21.701a.829.829 0 010 1.215.83.83 0 01-1.214 0c-20.439-20.095-39.429-27.93-52.076-21.388-5.403 2.781-9.358 7.991-11.786 15.551-7.478 23.424 1.136 64.554 21.966 104.782 24.629 47.593 59.281 80.262 82.853 80.262 3.524 0 6.774-.744 9.749-2.233 5.404-2.781 9.359-7.991 11.786-15.551 7.479-23.424-1.135-64.554-21.966-104.782-6.304-12.143-13.352-23.542-20.948-33.844-.274-.392-.196-.94.196-1.214.391-.274.94-.196 1.214.196 7.674 10.419 14.761 21.857 21.104 34.078 21.027 40.581 29.68 82.22 22.084 106.075-2.545 7.991-6.813 13.554-12.647 16.57-3.211 1.606-6.735 2.428-10.533 2.428z" fill="#000"/><path d="M195.309 292.517h-.079l-21.653-2.35a.635.635 0 01-.352-.117c-4.464-.706-10.102-6.346-14.213-14.259-4.386-8.343-5.678-16.491-3.289-20.329l.039-.118 11.277-19.977a.545.545 0 01.117-.157l28.701-29.809.117-.117 73.534-52.49 46.516-97.81a.928.928 0 01.509-.43c.235-.079.47-.079.666.039a.861.861 0 01.431 1.136c-11.786 25.265-2.467 75.482 23.14 124.916 25.647 49.512 61.396 86.176 88.922 91.229.431.079.744.47.705.94-.039.431-.431.745-.862.784l-.744-.039h-.117l-106.737-18.293-85.829 30.71c-.039 0-.117.039-.156.039l-40.526 6.463c-.039.039-.078.039-.117.039zm-21.105-3.995l21.105 2.272 40.33-6.463 85.984-30.75c.157-.039.274-.078.431-.039l96.087 16.452c-25.96-11.399-56.305-45.047-78.819-88.526-22.358-43.167-32.343-87-26.861-114.693l-41.426 86.96c-.078.117-.157.235-.274.313l-73.651 52.607-28.584 29.652-11.276 19.977c0 .039-.039.079-.039.079-2.037 3.172-.666 11.007 3.289 18.645 3.876 7.482 9.475 13.122 13.312 13.396.157 0 .274.04.392.118z" fill="#000"/><path d="M270.368 153.069l46.477-97.732h.039c-11.551 24.756-3.132 74.934 23.141 125.7 26.351 50.844 62.609 86.763 89.548 91.699l-.744-.039-106.776-18.293-2.467-.431c-12.412-2.194-28.975-18.332-40.839-41.365-12.177-23.62-14.331-47.161-8.928-58.364l.549-1.175z" fill="#fff"/><path d="M429.573 273.598c-.039 0 0 0 0 0l-.783-.04h-.117l-106.777-18.292-2.467-.431c-13.117-2.311-29.758-19.116-41.465-41.796-13.274-25.774-13.939-48.728-8.927-59.148l.587-1.175 46.477-97.692a.927.927 0 01.509-.431c.235-.079.47-.079.666.039a.861.861 0 01.431 1.136c-11.786 25.265-2.467 75.482 23.14 124.916 25.647 49.512 61.396 86.176 88.922 91.229.431.079.744.47.705.94-.118.392-.47.745-.901.745zM312.382 66.775l-41.231 86.685-.587 1.175c-4.973 10.342-3.524 33.452 8.927 57.582 11.473 22.249 27.644 38.701 40.252 40.894l2.466.431 95.892 16.452c-25.96-11.399-56.306-45.047-78.82-88.527-22.357-43.166-32.342-86.998-26.899-114.692zM194.133 292.4h-.078l-20.517-2.194a.635.635 0 01-.353-.117c-4.463-.705-10.102-6.346-14.213-14.258-4.346-8.383-5.638-16.531-3.25-20.369l.039-.118 11.277-19.977c.235-.431.744-.548 1.175-.313.43.235.548.744.313 1.175l-11.277 20.055c0 .039-.039.079-.039.079-2.036 3.172-.666 11.007 3.289 18.645 3.876 7.482 9.476 13.122 13.313 13.396.117 0 .274.04.352.118l20.048 2.154c.47.04.822.47.744.94-.039.431-.392.784-.823.784z" fill="#000"/><path d="M195.504 291.538c-6.657-.47-15.976-9.91-22.75-22.954-7.165-13.828-8.849-28.125-4.463-33.217l-11.708 20.369-.078.156c-2.232 3.447-.94 11.399 3.25 19.507 4.111 7.991 9.906 13.554 13.978 13.867l-.117.078 21.888 2.194z" fill="#fff"/><path d="M195.504 292.4h-.078c-.157 0-.353-.04-.509-.04l-21.379-2.154a.629.629 0 01-.353-.118c-4.463-.705-10.102-6.345-14.213-14.258-4.346-8.382-5.638-16.53-3.25-20.369l.039-.117 10.298-17.94c.392-1.019.901-1.92 1.527-2.664.274-.353.783-.392 1.136-.157.352.274.47.744.235 1.136l-1.449 2.468c-2.31 6.228-.039 18.449 5.912 29.887 6.461 12.496 15.271 21.623 21.575 22.445l.47.04c.47.039.822.47.783.94.039.548-.313.901-.744.901zm-21.34-3.878l14.958 1.527c-5.756-3.682-12.099-11.281-17.15-21.074-4.895-9.44-7.322-19.233-6.931-26.283l-7.792 13.592c0 .039-.039.078-.039.078-2.036 3.173-.666 11.007 3.289 18.646 3.876 7.481 9.476 13.122 13.313 13.396.117 0 .274.039.352.118z" fill="#000"/><path d="M234.345 285.388l1.723-.353c-9.319 1.959-24.041-12.143-34.417-32.159-10.611-20.447-12.608-40.855-5.091-46.888l-.978.98-27.213 28.281c-4.464 5.014-2.82 19.39 4.385 33.295 6.931 13.397 16.758 22.955 23.454 22.915l38.137-6.071z" fill="#000"/><path d="M196.17 292.36c-7.127 0-17.033-9.596-24.198-23.385-7.283-14.101-9.123-28.829-4.268-34.274l26.704-27.733a9.14 9.14 0 011.605-1.645.895.895 0 011.175.078c.313.352.313.862 0 1.175l-1.527 1.606c-5.443 7.286-2.741 25.931 6.773 44.302 10.259 19.821 24.59 33.413 33.361 31.768l.117-.039a.879.879 0 011.018.666.878.878 0 01-.665 1.018c-.04 0-.079 0-.118.039l-1.605.314h-.039l-38.138 6.071c-.078 0-.156.039-.195.039zm-4.033-80.535l-23.141 24.051c-4.307 4.857-2.349 19.037 4.542 32.316 6.735 13.005 16.249 22.406 22.632 22.445l33.673-5.367c-9.084-3.212-20.282-15.315-28.936-31.963-8.222-15.864-11.394-32.003-8.77-41.482zm167.741-74.346c-6.147 3.133-5.246 17.666 2.585 32.159 13.117 24.247 23.571 21.387 24.785 20.956.039 0 .039.04 0 .04l-22.514 18.136c-6.618-9.284-12.922-19.625-18.717-30.789-5.52-10.693-10.18-21.348-13.861-31.689l27.722-8.813z" fill="#000"/><path d="M364.733 209.631h-.117a.924.924 0 01-.587-.352c-6.774-9.519-13.078-19.938-18.756-30.867-5.442-10.498-10.141-21.191-13.9-31.767-.078-.235-.078-.471.039-.666a.926.926 0 01.509-.431l27.722-8.814c.431-.117.901.079 1.057.509.157.431 0 .901-.391 1.097-1.331.666-2.31 1.998-2.898 3.957-1.918 6.149.431 17.039 5.874 27.028 12.803 23.659 22.671 20.956 23.728 20.564.391-.156.861.039 1.057.392a.957.957 0 01-.196 1.136l-22.592 18.019a.94.94 0 01-.549.195zm-31.441-62.791c3.72 10.224 8.262 20.565 13.508 30.75 5.482 10.576 11.59 20.643 18.129 29.926l19.539-15.746c-4.464-.196-12.882-3.526-22.75-21.74-5.716-10.537-8.065-21.662-5.99-28.36a12.38 12.38 0 01.979-2.311l-23.415 7.481zm142.432-65.243c17.9-9.403 24.823-31.481 15.463-49.312-9.359-17.83-31.458-24.662-49.358-15.258-17.9 9.403-24.823 31.481-15.464 49.312 9.36 17.83 31.459 24.662 49.359 15.258z" fill="#000"/><path d="M442.105 41.235c1.722-2.35 4.267-3.8 7.165-4.113 2.193-.235 4.229.235 6.147 1.41.979.588 1.841 1.332 2.663 2.233.587-1.057 1.292-1.998 2.114-2.781 1.606-1.567 3.524-2.468 5.678-2.703 2.897-.313 5.716.549 7.909 2.468 2.154 1.88 3.524 4.622 3.877 7.717.352 3.172-.51 6.228-2.702 9.597-1.958 3.016-4.934 6.15-8.379 9.831-1.175 1.254-2.506 2.664-3.877 4.153a2.129 2.129 0 01-1.409.705c-.549.078-1.058-.079-1.527-.392a273.629 273.629 0 00-4.699-3.212c-4.151-2.82-7.753-5.249-10.337-7.756-2.898-2.781-4.385-5.601-4.738-8.774-.313-3.095.431-6.072 2.115-8.383z" fill="#fff"/><path d="M577.273 83.593c13.104-13.11 13.104-34.365-.001-47.475-13.104-13.11-34.35-13.11-47.454 0-13.105 13.11-13.105 34.365 0 47.474 13.104 13.11 34.35 13.11 47.455 0z" fill="#B9FF66"/><path d="M553.539 94.273c-18.951 0-34.418-15.433-34.418-34.431 0-18.959 15.428-34.431 34.418-34.431s34.417 15.433 34.417 34.43c0 18.96-15.427 34.432-34.417 34.432zm0-67.139c-18.012 0-32.695 14.65-32.695 32.708 0 18.019 14.644 32.708 32.695 32.708 18.011 0 32.694-14.65 32.694-32.708 0-18.019-14.644-32.708-32.694-32.708z" fill="#B9FF66"/><path d="M562.622 63.171c-1.879 0-3.524.901-4.62 2.311l-11.316-4.426c0-.157.039-.274.039-.43 0-.275-.039-.55-.078-.823l11.59-5.367a5.971 5.971 0 004.385 2.037c3.211 0 5.874-2.624 5.874-5.876 0-3.25-2.624-5.914-5.874-5.914-3.21 0-5.873 2.624-5.873 5.875 0 .275.039.549.078.823l-11.59 5.366a5.971 5.971 0 00-4.385-2.037c-3.211 0-5.873 2.625-5.873 5.876 0 3.251 2.623 5.915 5.873 5.915 1.879 0 3.524-.901 4.62-2.311l11.316 4.426c0 .157-.039.274-.039.431 0 3.251 2.623 5.915 5.873 5.915 3.211 0 5.874-2.625 5.874-5.876-.04-3.251-2.663-5.875-5.874-5.915zm.445 126.822c15.366-10.671 19.227-31.71 8.623-46.994-10.604-15.284-31.658-19.024-47.024-8.354-15.367 10.67-19.228 31.71-8.623 46.994 10.604 15.284 31.657 19.024 47.024 8.354z" fill="#000"/><path d="M535.412 178.373l-4.934-26.754a1.89 1.89 0 012.349-2.154l29.171 8.265c1.488.431 1.84 2.35.626 3.29l-24.276 18.489c-1.057.862-2.662.274-2.936-1.136z" fill="#fff"/><path d="M543.535 299.582c18.977-9.242 26.917-32.029 17.736-50.896-9.181-18.867-32.007-26.67-50.984-17.428-18.976 9.241-26.916 32.028-17.735 50.895 9.181 18.867 32.007 26.67 50.983 17.429z" fill="#B9FF66"/><path d="M526.718 304.347c-4.072 0-8.223-.627-12.256-1.998-9.867-3.29-17.855-10.184-22.475-19.507-4.62-9.283-5.325-19.82-1.997-29.691 6.892-20.33 29.053-31.416 49.453-24.639 9.867 3.29 17.855 10.184 22.475 19.507 4.621 9.284 5.326 19.821 1.997 29.692-5.56 16.295-20.869 26.636-37.197 26.636zm.391-76.07c-15.623 0-30.267 9.871-35.553 25.461-3.171 9.44-2.505 19.507 1.919 28.36 4.425 8.892 12.06 15.512 21.496 18.645 19.5 6.463 40.683-4.113 47.261-23.541 3.171-9.441 2.506-19.508-1.919-28.36-4.424-8.892-12.06-15.512-21.496-18.646-3.877-1.331-7.831-1.919-11.708-1.919z" fill="#000"/><path d="M546.375 259.261c-.391 9.519-16.484 31.768-20.321 36.978-.392.548-1.214.509-1.567-.079-2.427-3.917-10.454-17.078-14.644-27.733-1.683-4.23-2.741-8.069-2.623-10.772.431-10.811 9.554-19.233 20.361-18.802 10.807.509 19.225 9.597 18.794 20.408z" fill="#000"/><path d="M533.13 264.827a8.972 8.972 0 000-12.686 8.963 8.963 0 00-12.68 0 8.972 8.972 0 000 12.686 8.963 8.963 0 0012.68 0z" fill="#B9FF66"/><defs><clipPath id="clip0_0_597"><path fill="#fff" transform="translate(293.537 427)" d="M0 0h36v36H0z"/></clipPath><clipPath id="clip1_0_597"><path fill="#fff" transform="rotate(45 -323.691 287.189)" d="M0 0h70.326v70.326H0z"/></clipPath></defs></svg>