<svg width="220" height="56" fill="none" xmlns="http://www.w3.org/2000/svg"><g clip-path="url(#clip0_0_583)"><g clip-path="url(#clip1_0_583)"><path d="M17.999 15.535l17.6-5.186L30.465 28 35.6 45.601l-17.601-5.136L.348 45.602l5.185-17.6L.348 10.348l17.65 5.186z" fill="#000"/></g><path d="M48.92 41V13h11.12c1.707 0 3.227.347 4.56 1.04 1.36.667 2.413 1.627 3.16 2.88.773 1.227 1.16 2.707 1.16 4.44v.52c0 1.733-.4 3.227-1.2 4.48a7.667 7.667 0 01-3.16 2.88c-1.333.667-2.84 1-4.52 1h-6.8V41h-4.32zm4.32-14.68h6.36c1.52 0 2.733-.4 3.64-1.2.907-.8 1.36-1.893 1.36-3.28v-.4c0-1.413-.453-2.52-1.36-3.32-.907-.8-2.12-1.2-3.64-1.2h-6.36v9.4zm28.595 15.24c-1.974 0-3.734-.4-5.28-1.2-1.52-.827-2.72-2-3.6-3.52-.88-1.52-1.32-3.32-1.32-5.4v-.6c0-2.08.44-3.867 1.32-5.36a9.136 9.136 0 013.6-3.52c1.546-.827 3.306-1.24 5.28-1.24 1.973 0 3.733.413 5.28 1.24 1.546.827 2.76 2 3.64 3.52.88 1.493 1.32 3.28 1.32 5.36v.6c0 2.08-.44 3.88-1.32 5.4a9.066 9.066 0 01-3.64 3.52c-1.547.8-3.307 1.2-5.28 1.2zm0-3.68c1.813 0 3.28-.573 4.4-1.72 1.146-1.173 1.72-2.787 1.72-4.84v-.36c0-2.053-.56-3.653-1.68-4.8-1.12-1.173-2.6-1.76-4.44-1.76-1.787 0-3.254.587-4.4 1.76-1.12 1.147-1.68 2.747-1.68 4.8v.36c0 2.053.56 3.667 1.68 4.84 1.146 1.147 2.613 1.72 4.4 1.72zm23.449 3.68c-2.507 0-4.587-.56-6.24-1.68-1.653-1.12-2.667-2.813-3.04-5.08l3.84-.92c.213 1.093.573 1.96 1.08 2.6a4.133 4.133 0 001.88 1.36c.773.267 1.6.4 2.48.4 1.307 0 2.307-.253 3-.76.72-.507 1.08-1.16 1.08-1.96s-.333-1.387-1-1.76-1.653-.68-2.96-.92l-1.36-.24c-1.333-.24-2.547-.587-3.64-1.04-1.093-.453-1.96-1.08-2.6-1.88-.64-.8-.96-1.827-.96-3.08 0-1.867.693-3.307 2.08-4.32 1.387-1.04 3.227-1.56 5.52-1.56 2.213 0 4.027.507 5.44 1.52 1.44.987 2.373 2.333 2.8 4.04l-3.84 1.08c-.24-1.2-.747-2.04-1.52-2.52-.773-.507-1.733-.76-2.88-.76-1.12 0-2 .213-2.64.64-.64.4-.96.973-.96 1.72 0 .8.307 1.387.92 1.76.64.373 1.493.653 2.56.84l1.4.24c1.413.24 2.707.573 3.88 1 1.173.427 2.093 1.04 2.76 1.84.693.8 1.04 1.867 1.04 3.2 0 1.973-.733 3.507-2.2 4.6-1.467 1.093-3.44 1.64-5.92 1.64zM118.22 41V21.28h4.12V41h-4.12zm2.08-22.4c-.8 0-1.48-.253-2.04-.76-.534-.533-.8-1.213-.8-2.04s.266-1.493.8-2c.56-.533 1.24-.8 2.04-.8.826 0 1.506.267 2.04.8.533.507.8 1.173.8 2s-.267 1.507-.8 2.04c-.534.507-1.214.76-2.04.76zM135.854 41c-1.2 0-2.16-.36-2.88-1.08-.693-.72-1.04-1.68-1.04-2.88V24.76h-5.44v-3.48h5.44v-6.52h4.12v6.52h5.88v3.48h-5.88v11.56c0 .8.373 1.2 1.12 1.2h4.12V41h-5.44zm10.92 0V21.28h4.12V41h-4.12zm2.08-22.4c-.8 0-1.48-.253-2.04-.76-.533-.533-.8-1.213-.8-2.04s.267-1.493.8-2c.56-.533 1.24-.8 2.04-.8.827 0 1.507.267 2.04.8.534.507.8 1.173.8 2s-.266 1.507-.8 2.04c-.533.507-1.213.76-2.04.76zM161.569 41l-6.64-19.72h4.36l5.24 16.68h.64l5.24-16.68h4.36L168.129 41h-6.56zm24.757.36c-1.493 0-2.826-.333-4-1-1.173-.667-2.093-1.613-2.76-2.84-.666-1.227-1-2.693-1-4.4V21.28h4.12v11.56c0 1.707.427 2.973 1.28 3.8.854.8 2.04 1.2 3.56 1.2 1.68 0 3.027-.56 4.04-1.68 1.04-1.147 1.56-2.787 1.56-4.92v-9.96h4.12V41h-4.04v-2.96h-.64c-.373.8-1.04 1.56-2 2.28-.96.693-2.373 1.04-4.24 1.04zm25.091.2c-2.507 0-4.587-.56-6.24-1.68-1.654-1.12-2.667-2.813-3.04-5.08l3.84-.92c.213 1.093.573 1.96 1.08 2.6a4.128 4.128 0 001.88 1.36c.773.267 1.6.4 2.48.4 1.306 0 2.306-.253 3-.76.72-.507 1.08-1.16 1.08-1.96s-.334-1.387-1-1.76c-.667-.373-1.654-.68-2.96-.92l-1.36-.24c-1.334-.24-2.547-.587-3.64-1.04-1.094-.453-1.96-1.08-2.6-1.88-.64-.8-.96-1.827-.96-3.08 0-1.867.693-3.307 2.08-4.32 1.386-1.04 3.226-1.56 5.52-1.56 2.213 0 4.026.507 5.44 1.52 1.44.987 2.373 2.333 2.8 4.04l-3.84 1.08c-.24-1.2-.747-2.04-1.52-2.52-.774-.507-1.734-.76-2.88-.76-1.12 0-2 .213-2.64.64-.64.4-.96.973-.96 1.72 0 .8.306 1.387.92 1.76.64.373 1.493.653 2.56.84l1.4.24c1.413.24 2.706.573 3.88 1 1.173.427 2.093 1.04 2.76 1.84.693.8 1.04 1.867 1.04 3.2 0 1.973-.734 3.507-2.2 4.6-1.467 1.093-3.44 1.64-5.92 1.64z" fill="#000"/></g><defs><clipPath id="clip0_0_583"><path fill="#fff" d="M0 0h219.537v56H0z"/></clipPath><clipPath id="clip1_0_583"><path fill="#fff" transform="translate(0 10)" d="M0 0h36v36H0z"/></clipPath></defs></svg>