<svg width="180" height="30" viewBox="0 0 180 30" fill="none" xmlns="http://www.w3.org/2000/svg">
<g clip-path="url(#clip0_0_954)">
<path d="M14.7572 4.95854L29.1885 0.78125L24.9777 15.0001L29.1885 29.1788L14.7572 25.0416L0.285034 29.1788L4.53675 15.0001L0.285034 0.78125L14.7572 4.95854Z" fill="white"/>
</g>
<path d="M40.1099 25.4723V2.91675H49.2272C50.6266 2.91675 51.8728 3.19601 52.966 3.75453C54.0811 4.29156 54.9447 5.0649 55.5569 6.07453C56.191 7.06267 56.508 8.2549 56.508 9.65119V10.0701C56.508 11.4664 56.1801 12.6693 55.5241 13.679C54.8901 14.6886 54.0264 15.4619 52.9332 15.999C51.84 16.536 50.6047 16.8045 49.2272 16.8045H43.6519V25.4723H40.1099ZM43.6519 13.6467H48.8665C50.1127 13.6467 51.1076 13.3245 51.8509 12.6801C52.5943 12.0356 52.966 11.1549 52.966 10.0379V9.71564C52.966 8.57712 52.5943 7.68564 51.8509 7.04119C51.1076 6.39675 50.1127 6.07453 48.8665 6.07453H43.6519V13.6467Z" fill="white"/>
<path d="M67.0969 25.9234C65.4789 25.9234 64.0359 25.6012 62.7678 24.9568C61.5215 24.2908 60.5376 23.3456 59.8161 22.1212C59.0946 20.8967 58.7338 19.4468 58.7338 17.7712V17.2879C58.7338 15.6123 59.0946 14.173 59.8161 12.9701C60.5376 11.7456 61.5215 10.8005 62.7678 10.1345C64.0359 9.4686 65.4789 9.13564 67.0969 9.13564C68.7148 9.13564 70.1579 9.4686 71.426 10.1345C72.6941 10.8005 73.6889 11.7456 74.4105 12.9701C75.132 14.173 75.4927 15.6123 75.4927 17.2879V17.7712C75.4927 19.4468 75.132 20.8967 74.4105 22.1212C73.6889 23.3456 72.6941 24.2908 71.426 24.9568C70.1579 25.6012 68.7148 25.9234 67.0969 25.9234ZM67.0969 22.959C68.5836 22.959 69.7862 22.4971 70.7045 21.5734C71.6446 20.6282 72.1147 19.3286 72.1147 17.6745V17.3845C72.1147 15.7305 71.6556 14.4416 70.7373 13.5179C69.819 12.5727 68.6055 12.1001 67.0969 12.1001C65.632 12.1001 64.4294 12.5727 63.4893 13.5179C62.571 14.4416 62.1118 15.7305 62.1118 17.3845V17.6745C62.1118 19.3286 62.571 20.6282 63.4893 21.5734C64.4294 22.4971 65.632 22.959 67.0969 22.959Z" fill="white"/>
<path d="M86.3232 25.9234C84.268 25.9234 82.5626 25.4723 81.207 24.5701C79.8514 23.6679 79.0206 22.3038 78.7145 20.4779L81.8629 19.7367C82.0378 20.6175 82.333 21.3156 82.7484 21.8312C83.1638 22.3468 83.6776 22.7119 84.2898 22.9268C84.9239 23.1416 85.6017 23.249 86.3232 23.249C87.3946 23.249 88.2145 23.0449 88.7829 22.6367C89.3733 22.2286 89.6684 21.7023 89.6684 21.0579C89.6684 20.4134 89.3951 19.9408 88.8485 19.6401C88.3019 19.3393 87.493 19.0923 86.4216 18.899L85.3065 18.7056C84.2133 18.5123 83.2185 18.233 82.3221 17.8679C81.4256 17.5027 80.715 16.9979 80.1903 16.3534C79.6656 15.709 79.4032 14.8819 79.4032 13.8723C79.4032 12.3686 79.9717 11.2086 81.1086 10.3923C82.2455 9.55453 83.7542 9.13564 85.6345 9.13564C87.4492 9.13564 88.936 9.54379 90.0948 10.3601C91.2755 11.1549 92.0407 12.2397 92.3905 13.6145L89.2421 14.4845C89.0453 13.5179 88.6299 12.8412 87.9958 12.4545C87.3618 12.0464 86.5747 11.8423 85.6345 11.8423C84.7162 11.8423 83.9947 12.0142 83.4699 12.3579C82.9452 12.6801 82.6828 13.1419 82.6828 13.7434C82.6828 14.3879 82.9343 14.8605 83.4371 15.1612C83.9619 15.4619 84.6615 15.6875 85.5361 15.8379L86.684 16.0312C87.8428 16.2245 88.9032 16.493 89.8652 16.8367C90.8272 17.1805 91.5816 17.6745 92.1282 18.319C92.6966 18.9634 92.9809 19.8227 92.9809 20.8967C92.9809 22.4864 92.3796 23.7216 91.1771 24.6023C89.9745 25.483 88.3566 25.9234 86.3232 25.9234Z" fill="white"/>
<path d="M96.9292 25.4723V9.58675H100.307V25.4723H96.9292ZM98.6347 7.42786C97.9787 7.42786 97.4212 7.22379 96.962 6.81564C96.5248 6.38601 96.3061 5.83823 96.3061 5.1723C96.3061 4.50638 96.5248 3.96934 96.962 3.56119C97.4212 3.13156 97.9787 2.91675 98.6347 2.91675C99.3124 2.91675 99.87 3.13156 100.307 3.56119C100.745 3.96934 100.963 4.50638 100.963 5.1723C100.963 5.83823 100.745 6.38601 100.307 6.81564C99.87 7.22379 99.3124 7.42786 98.6347 7.42786Z" fill="white"/>
<path d="M111.388 25.4723C110.404 25.4723 109.617 25.1823 109.026 24.6023C108.458 24.0223 108.174 23.249 108.174 22.2823V12.3901H103.713V9.58675H108.174V4.33453H111.552V9.58675H116.373V12.3901H111.552V21.7023C111.552 22.3468 111.858 22.669 112.47 22.669H115.848V25.4723H111.388Z" fill="white"/>
<path d="M120.341 25.4723V9.58675H123.719V25.4723H120.341ZM122.047 7.42786C121.391 7.42786 120.833 7.22379 120.374 6.81564C119.937 6.38601 119.718 5.83823 119.718 5.1723C119.718 4.50638 119.937 3.96934 120.374 3.56119C120.833 3.13156 121.391 2.91675 122.047 2.91675C122.725 2.91675 123.282 3.13156 123.719 3.56119C124.157 3.96934 124.375 4.50638 124.375 5.1723C124.375 5.83823 124.157 6.38601 123.719 6.81564C123.282 7.22379 122.725 7.42786 122.047 7.42786Z" fill="white"/>
<path d="M132.471 25.4723L127.027 9.58675H130.602L134.898 23.0234H135.423L139.719 9.58675H143.294L137.85 25.4723H132.471Z" fill="white"/>
<path d="M152.771 25.7623C151.546 25.7623 150.453 25.4938 149.491 24.9568C148.529 24.4197 147.775 23.6571 147.228 22.669C146.681 21.6808 146.408 20.4993 146.408 19.1245V9.58675H149.786V18.899C149.786 20.2738 150.136 21.2942 150.836 21.9601C151.535 22.6045 152.508 22.9268 153.755 22.9268C155.132 22.9268 156.236 22.4756 157.067 21.5734C157.92 20.6497 158.346 19.3286 158.346 17.6101V9.58675H161.724V25.4723H158.412V23.0879H157.887C157.581 23.7323 157.034 24.3445 156.247 24.9245C155.46 25.483 154.301 25.7623 152.771 25.7623Z" fill="white"/>
<path d="M173.342 25.9234C171.287 25.9234 169.582 25.4723 168.226 24.5701C166.871 23.6679 166.04 22.3038 165.734 20.4779L168.882 19.7367C169.057 20.6175 169.352 21.3156 169.768 21.8312C170.183 22.3468 170.697 22.7119 171.309 22.9268C171.943 23.1416 172.621 23.249 173.342 23.249C174.414 23.249 175.234 23.0449 175.802 22.6367C176.392 22.2286 176.688 21.7023 176.688 21.0579C176.688 20.4134 176.414 19.9408 175.868 19.6401C175.321 19.3393 174.512 19.0923 173.441 18.899L172.326 18.7056C171.232 18.5123 170.238 18.233 169.341 17.8679C168.445 17.5027 167.734 16.9979 167.209 16.3534C166.685 15.709 166.422 14.8819 166.422 13.8723C166.422 12.3686 166.991 11.2086 168.128 10.3923C169.265 9.55453 170.773 9.13564 172.654 9.13564C174.468 9.13564 175.955 9.54379 177.114 10.3601C178.295 11.1549 179.06 12.2397 179.41 13.6145L176.261 14.4845C176.064 13.5179 175.649 12.8412 175.015 12.4545C174.381 12.0464 173.594 11.8423 172.654 11.8423C171.735 11.8423 171.014 12.0142 170.489 12.3579C169.964 12.6801 169.702 13.1419 169.702 13.7434C169.702 14.3879 169.953 14.8605 170.456 15.1612C170.981 15.4619 171.681 15.6875 172.555 15.8379L173.703 16.0312C174.862 16.2245 175.922 16.493 176.884 16.8367C177.846 17.1805 178.601 17.6745 179.147 18.319C179.716 18.9634 180 19.8227 180 20.8967C180 22.4864 179.399 23.7216 178.196 24.6023C176.994 25.483 175.376 25.9234 173.342 25.9234Z" fill="white"/>
<defs>
<clipPath id="clip0_0_954">
<rect width="29.5167" height="29" fill="white" transform="translate(0 0.5)"/>
</clipPath>
</defs>
</svg>
