<svg width="30" height="30" viewBox="0 0 30 30" fill="none" xmlns="http://www.w3.org/2000/svg">
<circle cx="15" cy="15" r="15" fill="white"/>
<path d="M8.22154 22.0588H11.3056V12.0745H8.22154V22.0588Z" fill="black"/>
<path d="M7.94116 8.88696C7.94116 9.87134 8.73555 10.6682 9.76359 10.6682C10.7449 10.6682 11.5393 9.87134 11.5393 8.88696C11.5393 7.90259 10.7449 7.05884 9.76359 7.05884C8.73555 7.05884 7.94116 7.90259 7.94116 8.88696Z" fill="black"/>
<path d="M19.8103 22.0588H22.9412V16.5745C22.9412 13.9026 22.3337 11.7932 19.2028 11.7932C17.7075 11.7932 16.6795 12.637 16.2589 13.4338H16.2122V12.0745H13.2683V22.0588H16.3524V17.137C16.3524 15.8245 16.586 14.5588 18.2215 14.5588C19.8103 14.5588 19.8103 16.0588 19.8103 17.1838V22.0588Z" fill="black"/>
</svg>
